<svg version="1.1" xmlns="http://www.w3.org/2000/svg" xmlns:xlink="http://www.w3.org/1999/xlink" width="500px" height="500px" viewBox="0,0,256,256"><g fill="none" fill-rule="nonzero" stroke="none" stroke-width="1" stroke-linecap="butt" stroke-linejoin="miter" stroke-miterlimit="10" stroke-dasharray="" stroke-dashoffset="0" font-family="none" font-weight="none" font-size="none" text-anchor="none" style="mix-blend-mode: normal"><g transform="translate(-0.89551,-0.5632) scale(0.512,0.512)"><g id="freepik--background-complete--inject-4"><path d="M298.66,471.25c0,2.74 -17.44,4.95 -39,4.95c-21.56,0 -39,-2.21 -39,-4.95c0,-2.74 17.44,-5 39,-5c21.56,0 39,2.26 39,5z" fill="#ffffff"></path><path d="M183,150.18c3.22238,-1.94473 6.68957,-3.45133 10.31,-4.48l2.12,-10.21l17.25,-0.3l2.48,10.12c3.65554,0.89838 7.17372,2.28413 10.46,4.12l8.72,-5.71l12.41,12l-5.41,8.91c1.94858,3.22039 3.4554,6.68811 4.48,10.31l10.18,2.06l0.3,17.25l-10.12,2.48c-0.89953,3.65518 -2.28522,7.1732 -4.12,10.46l5.71,8.72l-12,12.4l-8.91,-5.4c-3.22589,1.9448 -6.69639,3.45137 -10.32,4.48l-2.12,10.21l-17.24,0.3l-2.49,-10.12c-3.65233,-0.90845 -7.1692,-2.29368 -10.46,-4.12l-8.71,5.71l-12.41,-12l5.4,-8.91c-1.94473,-3.22238 -3.45133,-6.68957 -4.48,-10.31l-10.21,-2.12l-0.3,-17.25l10.13,-2.48c0.90048,-3.65337 2.28258,-7.17084 4.11,-10.46l-5.71,-8.72l12,-12.4l8.91,5.4zM192.19,173.18c-7.09612,7.35075 -6.88985,19.06221 0.4607,26.15853c7.35056,7.09632 19.06202,6.89038 26.15854,-0.45997c7.09653,-7.35036 6.89092,-19.06183 -0.45925,-26.15856c-7.34133,-7.09868 -19.04604,-6.90622 -26.15,0.43z" fill="#f5f5f5"></path><path d="M284.43,180.26c2.71187,-0.93796 5.53682,-1.50968 8.4,-1.7l3.21,-7.27l12.9,2.52l0.24,7.94c2.58419,1.25382 4.98889,2.84799 7.15,4.74l7.4,-2.88l7.35,10.91l-5.45,5.78c0.93704,2.71212 1.50873,5.53695 1.7,8.4l7.27,3.21l-2.51,12.9l-7.95,0.24c-1.25145,2.58321 -2.84217,4.98778 -4.73,7.15l2.87,7.41l-10.9,7.39l-5.79,-5.44c-2.711,0.93947 -5.53661,1.50795 -8.4,1.69l-3.2,7.28l-12.91,-2.53l-0.24,-8c-2.5821,-1.24802 -4.98381,-2.83907 -7.14,-4.73l-7.41,2.87l-7.29,-10.89l5.44,-5.78c-0.93704,-2.71212 -1.50873,-5.53695 -1.7,-8.4l-7.27,-3.21l2.47,-12.86l7.94,-0.24c1.25398,-2.5787 2.84452,-4.97965 4.73,-7.14l-2.87,-7.41l10.91,-7.34l5.78,5.44zM287.63,198.85c-4.73493,3.18713 -7.08339,8.91295 -5.95009,14.50696c1.1333,5.59401 5.52514,9.95429 11.12718,11.04723c5.60204,1.09294 11.31077,-1.29675 14.46368,-6.05453c3.15291,-4.75778 3.12892,-10.94646 -0.06077,-15.67966c-4.35326,-6.45983 -13.11782,-8.16977 -19.58,-3.82z" fill="#ffffff"></path><path d="M329.64,41.07c0,0 0.09,0 0.24,0.17c0.15,0.17 0.37,0.31 0.67,0.53c0.87343,0.67561 1.79226,1.29039 2.75,1.84c1.50722,0.86694 3.10731,1.56132 4.77,2.07c2.20319,0.66445 4.50002,0.96507 6.8,0.89c2.7909,-0.16597 5.56926,-0.49991 8.32,-1c3.18346,-0.54938 6.42782,-0.65371 9.64,-0.31c3.55627,0.42429 7.01699,1.43817 10.24,3c6.99538,3.385 12.36404,9.40451 14.93,16.74c1.19392,3.37662 1.72364,6.95226 1.56,10.53c-0.12,3.41 -0.6,6.6 -0.68,9.61c-0.14655,2.78885 0.21603,5.58107 1.07,8.24c0.72027,2.18852 1.77985,4.25032 3.14,6.11c1.01574,1.41301 2.19754,2.69889 3.52,3.83c0.53,0.48 1,0.84 1.49,1.18c0.49,0.34 0.83,0.58 1.15,0.78l0.74,0.44c0.16,0.11 0.25,0.16 0.25,0.17c-0.09424,-0.03799 -0.18465,-0.08487 -0.27,-0.14l-0.75,-0.41c-0.33,-0.19 -0.72,-0.46 -1.18,-0.76c-0.46,-0.3 -1,-0.68 -1.52,-1.16c-3.14098,-2.64653 -5.49345,-6.10606 -6.8,-10c-0.88059,-2.68114 -1.26025,-5.50144 -1.12,-8.32c0.07,-3 0.54,-6.24 0.65,-9.62c0.14916,-3.53776 -0.38037,-7.07137 -1.56,-10.41c-2.53545,-7.25045 -7.84374,-13.1989 -14.76,-16.54c-3.18462,-1.55174 -6.6042,-2.56545 -10.12,-3c-3.18768,-0.34764 -6.4081,-0.25341 -9.57,0.28c-2.76036,0.50314 -5.54889,0.8371 -8.35,1c-2.32943,0.04698 -4.65063,-0.29089 -6.87,-1c-2.7268,-0.85578 -5.27023,-2.21228 -7.5,-4c-0.3,-0.24 -0.51,-0.44 -0.65,-0.56z" fill="#ffffff"></path><path d="M346.75,19c1.13054,1.0117 2.196,2.09386 3.19,3.24c1.18859,1.32591 2.27503,2.73996 3.25,4.23c1.32768,1.96496 2.29917,4.14827 2.87,6.45c0.15064,0.65847 0.25423,1.32682 0.31,2c0,0.7 0,1.4 0,2.11c0,1.43 -0.06,2.91 -0.09,4.45c-0.06,3.07 -0.16,6.36 -0.11,9.81c0.06027,3.60173 0.73671,7.16655 2,10.54c1.3591,3.6252 3.45679,6.92838 6.16,9.7c2.72674,2.75235 6.04372,4.84854 9.7,6.13c3.39608,1.21703 7.03467,1.60112 10.61,1.12c3.41,-0.46 6.56,-1.47 9.6,-2c1.46652,-0.28288 2.95645,-0.42685 4.45,-0.43c1.37791,0.0185 2.75087,0.16919 4.1,0.45c2.31362,0.50904 4.5314,1.38333 6.57,2.59c1.53714,0.90931 2.94906,2.01532 4.2,3.29c0.79598,0.79703 1.51887,1.66383 2.16,2.59l0.47,0.73l0.16,0.26c-0.06414,-0.07681 -0.12423,-0.15692 -0.18,-0.24c-0.13,-0.17 -0.29,-0.41 -0.51,-0.71c-1.72022,-2.33453 -3.89779,-4.29434 -6.4,-5.76c-2.00217,-1.18463 -4.17904,-2.04526 -6.45,-2.55c-1.33321,-0.27086 -2.68958,-0.41152 -4.05,-0.42c-1.47672,0.00867 -2.94954,0.15261 -4.4,0.43c-3,0.54 -6.16,1.57 -9.6,2c-3.61604,0.52042 -7.30397,0.17424 -10.76,-1.01c-3.70681,-1.29443 -7.06898,-3.41845 -9.83,-6.21c-2.73686,-2.80456 -4.8587,-6.1491 -6.23,-9.82c-1.27725,-3.40771 -1.95394,-7.01108 -2,-10.65c-0.05,-3.47 0.06,-6.75 0.14,-9.83c0,-1.53 0.07,-3 0.1,-4.44c0,-0.72 0,-1.41 0,-2.09c-0.0528,-0.67229 -0.14968,-1.3404 -0.29,-2c-0.55592,-2.2793 -1.50332,-4.44478 -2.8,-6.4c-0.95598,-1.491 -2.0223,-2.90829 -3.19,-4.24c-1,-1.11 -1.74,-1.93 -2.28,-2.48l-0.61,-0.63z" fill="#ffffff"></path><path d="M356.28,35.88c0.07,0.06 -1.93,2.57 -4.47,5.61c-2.54,3.04 -4.66,5.45 -4.73,5.39c-0.07,-0.06 1.93,-2.57 4.47,-5.61c2.54,-3.04 4.66,-5.45 4.73,-5.39z" fill="#ffffff"></path><path d="M354.56,29.51c0.07,0.07 -3.42,3.71 -7.79,8.15c-4.37,4.44 -8,8 -8,7.9c0,-0.1 3.42,-3.71 7.79,-8.14c4.37,-4.43 7.93,-7.98 8,-7.91z" fill="#ffffff"></path><path d="M351,23.6c0.07,0.06 -4.17,4.41 -9.46,9.7c-5.29,5.29 -9.63,9.53 -9.7,9.46c-0.07,-0.07 4.17,-4.41 9.46,-9.7c5.29,-5.29 9.63,-9.53 9.7,-9.46z" fill="#ffffff"></path><path d="M389,69.36c0.06,0.07 -2.41,2.29 -5.52,5c-3.11,2.71 -5.67,4.78 -5.74,4.71c-0.07,-0.07 2.41,-2.29 5.52,-5c3.11,-2.71 5.64,-4.79 5.74,-4.71z" fill="#ffffff"></path><path d="M385.67,60.6c-0.17099,0.23561 -0.36531,0.45338 -0.58,0.65c-0.38,0.4 -0.95,1 -1.66,1.65c-1.43,1.38 -3.43,3.25 -5.7,5.25c-2.27,2 -4.39,3.74 -5.94,5c-0.78,0.61 -1.41,1.1 -1.86,1.43c-0.21442,0.19343 -0.45309,0.35814 -0.71,0.49c0.18928,-0.21768 0.40039,-0.41538 0.63,-0.59l1.79,-1.52c1.51,-1.28 3.59,-3 5.86,-5c2.27,-2 4.3,-3.83 5.76,-5.16l1.74,-1.65c0.20391,-0.20579 0.42842,-0.39009 0.67,-0.55z" fill="#ffffff"></path><path d="M380.61,53.88c-0.22059,0.2312 -0.46157,0.44205 -0.72,0.63l-2,1.66c-1.72,1.4 -4.07,3.35 -6.61,5.58c-2.54,2.23 -4.77,4.32 -6.38,5.84l-1.9,1.8c-0.21915,0.23943 -0.46396,0.45405 -0.73,0.64c0.1839,-0.26469 0.39506,-0.50936 0.63,-0.73c0.42,-0.45 1.05,-1.1 1.83,-1.88c1.57,-1.57 3.79,-3.69 6.33,-5.93c2.54,-2.24 4.92,-4.16 6.68,-5.51c0.88,-0.67 1.6,-1.21 2.11,-1.57c0.23676,-0.19932 0.49114,-0.37671 0.76,-0.53z" fill="#ffffff"></path><path d="M372.24,49.32c-0.15226,0.19917 -0.32672,0.38034 -0.52,0.54l-1.49,1.37c-1.26,1.16 -3,2.76 -4.88,4.56c-1.88,1.8 -3.56,3.46 -4.77,4.67l-1.44,1.43c-0.16343,0.18813 -0.35184,0.35299 -0.56,0.49c0.13407,-0.21095 0.28811,-0.40853 0.46,-0.59c0.32,-0.36 0.78,-0.87 1.37,-1.5c1.16,-1.25 2.82,-2.94 4.7,-4.75c1.88,-1.81 3.66,-3.38 5,-4.49c0.65,-0.55 1.18,-1 1.56,-1.29c0.17482,-0.16535 0.36577,-0.31275 0.57,-0.44z" fill="#ffffff"></path><path d="M365.75,45.74c-1.43605,1.56989 -2.95488,3.06202 -4.55,4.47c-1.51811,1.4934 -3.11719,2.9022 -4.79,4.22c1.45203,-1.55538 2.9841,-3.03405 4.59,-4.43c1.50806,-1.50176 3.09355,-2.9237 4.75,-4.26z" fill="#ffffff"></path><path d="M401.45,76.49c-0.12887,0.18753 -0.27997,0.35878 -0.45,0.51l-1.34,1.24c-1.19,1.11 -2.72,2.52 -4.42,4.08c-1.7,1.56 -3.2,3 -4.38,4.12l-1.34,1.24c-0.15715,0.15893 -0.33156,0.29981 -0.52,0.42c0,0 0.13,-0.2 0.43,-0.52c0.3,-0.32 0.72,-0.77 1.26,-1.32c1.08,-1.1 2.6,-2.59 4.32,-4.19c1.72,-1.6 3.32,-3 4.49,-4c0.59,-0.5 1.07,-0.89 1.41,-1.16c0.15796,-0.16625 0.33999,-0.30783 0.54,-0.42z" fill="#ffffff"></path><path d="M409.61,79.57c0.06,0.06 -4,4 -9.13,8.74c-5.13,4.74 -9.29,8.56 -9.36,8.49c-0.07,-0.07 4,-4 9.13,-8.74c5.13,-4.74 9.29,-8.56 9.36,-8.49z" fill="#ffffff"></path><path d="M415.22,82.71c0.07,0.06 -4.33,4.52 -9.82,10c-5.49,5.48 -10,9.78 -10.07,9.71c-0.07,-0.07 4.33,-4.52 9.83,-10c5.5,-5.48 10,-9.78 10.06,-9.71z" fill="#ffffff"></path><path d="M423,377.09l0.19,-0.4l0.11,-0.22c0,-0.09 0.06,-0.19 0.1,-0.29c0.09068,-0.23954 0.15767,-0.48739 0.2,-0.74c0,-0.14 0.06,-0.29 0.08,-0.45v-0.5c0.015,-0.18637 0.015,-0.37363 0,-0.56c0,-0.2 0,-0.4 0,-0.61c-0.11274,-0.96589 -0.34796,-1.91351 -0.7,-2.82c-0.99882,-2.48303 -2.37503,-4.79696 -4.08,-6.86c-2.21502,-2.7566 -4.67506,-5.30701 -7.35,-7.62c-3.22945,-2.82508 -6.65466,-5.41822 -10.25,-7.76c-4.11602,-2.7015 -8.41659,-5.11076 -12.87,-7.21c-2.35,-1.1 -4.81,-2.13 -7.37,-3.06c-2.61219,-0.95808 -5.28464,-1.74311 -8,-2.35c-2.7971,-0.66284 -5.66579,-0.97523 -8.54,-0.93c-1.46648,0.02904 -2.91991,0.28195 -4.31,0.75c-0.69279,0.24231 -1.34895,0.5788 -1.95,1c-0.59342,0.43827 -1.09892,0.98447 -1.49,1.61c-0.35589,0.64944 -0.59295,1.35722 -0.7,2.09c-0.07512,0.72951 -0.05495,1.4657 0.06,2.19c0.26796,1.44168 0.75351,2.83425 1.44,4.13c1.34619,2.53152 3.00592,4.88336 4.94,7c1.85029,2.07095 3.83099,4.02159 5.93,5.84c2,1.79 4.14,3.44 6.25,5c3.99205,2.88171 8.18246,5.47815 12.54,7.77c3.79544,2.01231 7.72861,3.75333 11.77,5.21c3.32892,1.20514 6.75937,2.10877 10.25,2.7c2.63848,0.48928 5.33612,0.57358 8,0.25c0.9653,-0.13221 1.90966,-0.38763 2.81,-0.76c0.2,-0.07 0.37,-0.18 0.55,-0.26c0.16786,-0.07915 0.32848,-0.17284 0.48,-0.28l0.43,-0.28l0.35,-0.29c0.19982,-0.15872 0.38399,-0.33619 0.55,-0.53c0.07,-0.08 0.14,-0.15 0.2,-0.23l0.14,-0.2l0.27,-0.37l-0.25,0.38l-0.14,0.21l-0.2,0.23c-0.16462,0.19475 -0.34525,0.37538 -0.54,0.54l-0.36,0.29l-0.42,0.29c-0.15733,0.10347 -0.32098,0.19699 -0.49,0.28c-0.18,0.08 -0.35,0.19 -0.55,0.27c-0.90217,0.3792 -1.85031,0.63809 -2.82,0.77c-2.66186,0.34355 -5.36104,0.26932 -8,-0.22c-3.49458,-0.57854 -6.92889,-1.47562 -10.26,-2.68c-4.04524,-1.45121 -7.98189,-3.18895 -11.78,-5.2c-4.36612,-2.28426 -8.56347,-4.87753 -12.56,-7.76c-2.11,-1.53 -4.21,-3.18 -6.27,-5c-2.10471,-1.81918 -4.0889,-3.7733 -5.94,-5.85c-1.95621,-2.13428 -3.63607,-4.50625 -5,-7.06c-0.6899,-1.31287 -1.17869,-2.72192 -1.45,-4.18c-0.12013,-0.74398 -0.1403,-1.50068 -0.06,-2.25c0.10241,-0.75247 0.34674,-1.47866 0.72,-2.14c0.40128,-0.6473 0.92022,-1.21372 1.53,-1.67c0.62059,-0.41846 1.29288,-0.7546 2,-1c1.4077,-0.46644 2.87736,-0.71925 4.36,-0.75c2.88749,-0.04679 5.7696,0.2656 8.58,0.93c2.71583,0.61342 5.38828,1.40514 8,2.37c2.56,0.93 5,2 7.38,3.07c4.45938,2.10525 8.76355,4.52467 12.88,7.24c3.59814,2.34513 7.02358,4.94513 10.25,7.78c2.67595,2.32285 5.136,4.88331 7.35,7.65c1.69966,2.07598 3.07216,4.39945 4.07,6.89c0.3455,0.91421 0.57398,1.86845 0.68,2.84c0,0.21 0,0.42 0,0.62c0.01509,0.18636 0.01509,0.37364 0,0.56c0,0.18 0,0.35 0,0.51c0,0.16 -0.06,0.31 -0.09,0.45c-0.04532,0.25301 -0.11566,0.5009 -0.21,0.74c0,0.1 -0.06,0.2 -0.1,0.28l-0.12,0.23z" fill="#ffffff"></path><path d="M428.42,349.92c0,0 -0.05,-0.14 -0.13,-0.43c0,-0.07 0,-0.15 -0.07,-0.24l-0.11,-0.28c-0.09303,-0.23626 -0.20681,-0.46382 -0.34,-0.68c-0.08,-0.12 -0.15,-0.26 -0.24,-0.39l-0.31,-0.4c-0.1093,-0.15176 -0.23323,-0.29243 -0.37,-0.42c-0.13315,-0.15317 -0.27683,-0.29685 -0.43,-0.43c-0.73243,-0.65168 -1.5458,-1.20625 -2.42,-1.65c-2.39535,-1.1848 -4.95863,-1.99425 -7.6,-2.4c-3.49262,-0.57886 -7.03013,-0.84325 -10.57,-0.79c-4.28824,0.03085 -8.56892,0.36502 -12.81,1c-4.86879,0.72016 -9.68073,1.78279 -14.4,3.18c-2.49,0.75 -5,1.61 -7.54,2.62c-2.58007,1.02116 -5.0919,2.20693 -7.52,3.55c-2.53114,1.37075 -4.88243,3.05025 -7,5c-1.07089,0.99913 -1.98755,2.15169 -2.72,3.42c-0.34755,0.64673 -0.60973,1.33581 -0.78,2.05c-0.3296,1.46079 -0.02827,2.99285 0.83,4.22c0.43172,0.59664 0.93933,1.1345 1.51,1.6c1.15814,0.89932 2.44616,1.61751 3.82,2.13c2.69877,0.99314 5.51018,1.64812 8.37,1.95c2.7584,0.31399 5.53409,0.45094 8.31,0.41c2.72,0 5.38,-0.19 8,-0.46c4.89217,-0.48514 9.74415,-1.31385 14.52,-2.48c4.16899,-1.04385 8.25914,-2.3805 12.24,-4c3.29182,-1.29903 6.45827,-2.89565 9.46,-4.77c2.28775,-1.38244 4.34863,-3.1094 6.11,-5.12c0.63582,-0.7356 1.17055,-1.55283 1.59,-2.43c0.09088,-0.18523 0.17102,-0.37555 0.24,-0.57c0.07187,-0.169 0.13201,-0.34274 0.18,-0.52l0.13,-0.5c0,-0.15 0.05,-0.31 0.07,-0.45c0.04466,-0.25071 0.06143,-0.5056 0.05,-0.76c0.005,-0.09994 0.005,-0.20006 0,-0.3v-0.25c0,-0.29 -0.05,-0.45 -0.05,-0.45l0.06,0.45v0.25v0.3c0.02799,0.25256 0.02799,0.50744 0,0.76c0,0.15 0,0.3 -0.06,0.46c-0.06,0.16 -0.09,0.32 -0.13,0.5c-0.048,0.18052 -0.10814,0.35759 -0.18,0.53c-0.06543,0.19434 -0.14223,0.38467 -0.23,0.57c-0.42237,0.8794 -0.95317,1.70246 -1.58,2.45c-1.76072,2.0263 -3.8253,3.76703 -6.12,5.16c-3.0005,1.88488 -6.16701,3.49157 -9.46,4.8c-3.98471,1.61833 -8.0781,2.95495 -12.25,4c-4.78385,1.19623 -9.64582,2.05501 -14.55,2.57c-2.59,0.27 -5.25,0.43 -8,0.46c-2.78273,0.05109 -5.56574,-0.08589 -8.33,-0.41c-2.87644,-0.30943 -5.7022,-0.98143 -8.41,-2c-1.39149,-0.52084 -2.69624,-1.24907 -3.87,-2.16c-0.58555,-0.47406 -1.10367,-1.02582 -1.54,-1.64c-0.42588,-0.63062 -0.72792,-1.3365 -0.89,-2.08c-0.14007,-0.74682 -0.14007,-1.51318 0,-2.26c0.17367,-0.73198 0.44263,-1.438 0.8,-2.1c0.73711,-1.28827 1.66419,-2.45808 2.75,-3.47c2.11691,-1.95056 4.46831,-3.63013 7,-5c2.43699,-1.33717 4.95907,-2.51302 7.55,-3.52c2.53,-1 5.06,-1.88 7.55,-2.62c4.73517,-1.3989 9.56409,-2.45825 14.45,-3.17c4.24711,-0.64097 8.53487,-0.97517 12.83,-1c3.54429,-0.0497 7.0857,0.22478 10.58,0.82c2.6495,0.41479 5.21951,1.23435 7.62,2.43c0.87118,0.45175 1.68108,1.01296 2.41,1.67c0.16,0.13 0.29,0.3 0.43,0.43c0.12871,0.13581 0.24894,0.27942 0.36,0.43c0.11,0.14 0.22,0.28 0.31,0.41c0.09,0.13 0.16,0.27 0.24,0.4c0.13429,0.21405 0.24494,0.44206 0.33,0.68c0.04209,0.09452 0.07882,0.19134 0.11,0.29l0.07,0.24c0.09,0.27 0.13,0.41 0.13,0.41z" fill="#ffffff"></path><path d="M408.44,321.41l-0.42,-0.17l-0.23,-0.09l-0.29,-0.08c-0.24411,-0.07591 -0.49547,-0.12619 -0.75,-0.15l-0.46,-0.05h-0.51c-0.18306,-0.01418 -0.36694,-0.01418 -0.55,0c-0.20472,0.00907 -0.40855,0.03246 -0.61,0.07c-0.95546,0.18539 -1.88537,0.48417 -2.77,0.89c-2.40233,1.17421 -4.61115,2.70858 -6.55,4.55c-2.60188,2.39753 -4.9785,5.02854 -7.1,7.86c-2.58439,3.41694 -4.92358,7.0126 -7,10.76c-2.41476,4.28912 -4.52335,8.74355 -6.31,13.33c-0.93,2.42 -1.8,4.95 -2.55,7.56c-0.76988,2.66619 -1.37107,5.37823 -1.8,8.12c-0.46613,2.83854 -0.57699,5.72407 -0.33,8.59c0.11867,1.45551 0.45578,2.88486 1,4.24c0.29399,0.67494 0.67743,1.30728 1.14,1.88c0.48404,0.55872 1.06717,1.02319 1.72,1.37c0.66516,0.31677 1.38474,0.50345 2.12,0.55c0.73617,0.03043 1.47303,-0.04023 2.19,-0.21c1.41194,-0.36503 2.76053,-0.94155 4,-1.71c2.44043,-1.52176 4.68113,-3.34253 6.67,-5.42c1.94968,-1.98114 3.7701,-4.08548 5.45,-6.3c1.64,-2.17 3.14,-4.38 4.52,-6.58c2.59589,-4.18364 4.89488,-8.54436 6.88,-13.05c1.74469,-3.91878 3.21164,-7.95541 4.39,-12.08c0.97883,-3.39928 1.64822,-6.88013 2,-10.4c0.31025,-2.6663 0.20907,-5.36443 -0.3,-8c-0.19684,-0.95377 -0.51615,-1.8781 -0.95,-2.75c-0.0897,-0.1823 -0.18987,-0.35926 -0.3,-0.53c-0.08928,-0.1655 -0.19302,-0.32278 -0.31,-0.47l-0.31,-0.4c-0.1,-0.13 -0.21,-0.23 -0.31,-0.34c-0.17139,-0.18676 -0.3625,-0.3544 -0.57,-0.5c-0.09,-0.07 -0.16,-0.14 -0.24,-0.19l-0.21,-0.13l-0.38,-0.23l0.39,0.22l0.21,0.12c0.08,0.05 0.16,0.12 0.25,0.19c0.2075,0.1456 0.39861,0.31324 0.57,0.5c0.1,0.1 0.22,0.21 0.32,0.33l0.32,0.41c0.11587,0.1445 0.21956,0.29836 0.31,0.46c0.11175,0.16975 0.21198,0.34682 0.3,0.53c0.45416,0.87162 0.79044,1.79975 1,2.76c0.51766,2.6342 0.62895,5.33212 0.33,8c-0.35145,3.52977 -1.02083,7.0206 -2,10.43c-1.17161,4.13197 -2.6353,8.17548 -4.38,12.1c-1.97878,4.51513 -4.27798,8.88294 -6.88,13.07c-1.37,2.21 -2.87,4.42 -4.52,6.59c-1.6675,2.23133 -3.4815,4.34933 -5.43,6.34c-1.99666,2.08968 -4.24756,3.92064 -6.7,5.45c-1.26159,0.77874 -2.63381,1.36202 -4.07,1.73c-0.73342,0.17349 -1.48684,0.24749 -2.24,0.22c-1.55905,-0.05988 -3.01667,-0.78869 -4,-2c-0.47844,-0.58173 -0.87233,-1.22811 -1.17,-1.92c-0.56591,-1.37183 -0.91996,-2.82173 -1.05,-4.3c-0.24893,-2.87621 -0.1347,-5.77233 0.34,-8.62c0.42051,-2.75078 1.0252,-5.47022 1.81,-8.14c0.75,-2.62 1.61,-5.15 2.55,-7.58c1.79751,-4.55605 3.91271,-8.98026 6.33,-13.24c2.09947,-3.75014 4.45855,-7.34892 7.06,-10.77c2.13653,-2.8282 4.52279,-5.45877 7.13,-7.86c1.95576,-1.83817 4.18158,-3.36589 6.6,-4.53c0.88542,-0.41051 1.81964,-0.70624 2.78,-0.88c0.21,0 0.42,0 0.61,-0.07c0.18639,-0.01442 0.37361,-0.01442 0.56,0h0.52l0.45,0.05c0.25348,0.03546 0.50412,0.08893 0.75,0.16l0.29,0.09l0.24,0.09z" fill="#ffffff"></path><path d="M355.65,380.54c0.64929,0.44462 0.81733,1.33029 0.37602,1.98183c-0.44131,0.65154 -1.32612,0.82408 -1.97989,0.38608c-0.65377,-0.438 -0.8308,-1.32192 -0.39613,-1.97791c0.20975,-0.32153 0.54074,-0.54443 0.91753,-0.61791c0.3768,-0.07348 0.76729,0.00874 1.08247,0.22791z" fill="#ffffff"></path><path d="M426.08,321.45c0.11441,0.56737 -0.12447,1.14777 -0.60513,1.47021c-0.48066,0.32245 -1.10829,0.32335 -1.58987,0.00229c-0.48159,-0.32106 -0.72215,-0.90076 -0.60937,-1.46846c0.11277,-0.5677 0.55664,-1.01144 1.12438,-1.12405c0.77294,-0.15331 1.52423,0.34756 1.68,1.12z" fill="#ffffff"></path><path d="M365.41,383.39c0.03866,0.19606 -0.08894,0.38634 -0.285,0.425c-0.19606,0.03866 -0.38634,-0.08894 -0.425,-0.285c-0.03866,-0.19606 0.08894,-0.38634 0.285,-0.425c0.19606,-0.03866 0.38634,0.08894 0.425,0.285z" fill="#ffffff"></path><path d="M365.22,342.63c0.03866,0.19606 -0.08894,0.38634 -0.285,0.425c-0.19606,0.03866 -0.38634,-0.08894 -0.425,-0.285c-0.02049,-0.09567 -0.00115,-0.19556 0.05355,-0.27667c0.05471,-0.08112 0.14007,-0.13647 0.23645,-0.15333c0.09418,-0.01749 0.19145,0.00328 0.27027,0.05771c0.07883,0.05443 0.13271,0.13803 0.14973,0.23229z" fill="#ffffff"></path><path d="M424.57,350.69c0.01749,0.09418 -0.00328,0.19145 -0.05771,0.27027c-0.05443,0.07883 -0.13803,0.13271 -0.23229,0.14973c-0.09301,0.02055 -0.19038,0.00229 -0.26964,-0.05054c-0.07926,-0.05284 -0.13355,-0.1357 -0.15036,-0.22946c-0.02069,-0.09422 -0.00269,-0.1928 0.04995,-0.27364c0.05264,-0.08084 0.13552,-0.13717 0.23005,-0.15636c0.09567,-0.02049 0.19556,-0.00115 0.27667,0.05355c0.08112,0.05471 0.13647,0.14007 0.15333,0.23645z" fill="#ffffff"></path><path d="M426.22,333.11c0.02055,0.09301 0.00229,0.19038 -0.05054,0.26964c-0.05284,0.07926 -0.1357,0.13355 -0.22946,0.15036c-0.09422,0.02069 -0.1928,0.00269 -0.27364,-0.04995c-0.08084,-0.05264 -0.13717,-0.13552 -0.15636,-0.23005c-0.02049,-0.09567 -0.00115,-0.19556 0.05355,-0.27667c0.05471,-0.08112 0.14007,-0.13647 0.23645,-0.15333c0.09418,-0.01749 0.19145,0.00328 0.27027,0.05771c0.07883,0.05443 0.13271,0.13803 0.14973,0.23229z" fill="#ffffff"></path><circle cx="-138.5632" cy="510.97217" transform="rotate(-62.72)" r="6.95" fill="#ffffff"></circle><path d="M345.64,134.81c-3.03066,-7.95504 -7.6747,-15.19688 -13.64,-21.27c-10.31,-10.54 -22.06,-19.85 -35.35,-26.39c-13.29,-6.54 -35,-12.34 -50.77,-12.25c-8.16,-0.32 -12.28,0.19 -19.7,3.06c-4.63,1.79 -8.52,5.92 -8.84,10.81c-0.3,4.53 2.5,10.1 6.24,12.74c16.08,11.34 28.26,11.93 43.86,16.92c15.6,4.99 31.64,12.38 40.05,26.26c4.57,7.52 7.17,17.16 15.09,21.15c7.68,3.88 17.8,0.12 22.51,-7c4.71,-7.12 3.59,-16.08 0.55,-24.03z" fill="#f5f5f5"></path><path d="M131.84,277.09c0,0 -0.39,0.23 -1.17,0.65c-0.78,0.42 -1.93,1 -3.41,1.9c-4.35398,2.47492 -8.55492,5.20988 -12.58,8.19c-6.38771,4.68645 -12.32954,9.95209 -17.75,15.73c-3.37978,3.61022 -6.55157,7.40969 -9.5,11.38c-3.3352,4.4248 -6.22586,9.16776 -8.63,14.16c-1.25941,2.69649 -2.33194,5.47638 -3.21,8.32c-0.88331,2.97616 -1.47937,6.03012 -1.78,9.12c-0.27803,3.22143 -0.10638,6.46589 0.51,9.64c0.32132,1.63787 0.76592,3.24912 1.33,4.82c0.59236,1.58033 1.30789,3.1117 2.14,4.58c3.62453,6.08149 8.80153,11.08938 15,14.51c6.59923,3.57975 13.77999,5.96318 21.21,7.04c3.8,0.63 7.67,1.06 11.61,1.36c2,0.17 4,0.23 5.94,0.32l6,0.26c2,0.13 4,0.08 6.08,0.08h6.14c2.06,0 4.13,-0.14 6.2,-0.21l6.26,-0.29c17.27757,-1.13754 34.43027,-3.71312 51.28,-7.7c34.7,-8.06 66.41,-20.62 94.33,-33.65c14,-6.47 27.07,-13.23 38.09,-21.39c5.33426,-3.90594 10.25039,-8.35291 14.67,-13.27l1.56,-1.78c0.51,-0.59 1,-1.23 1.46,-1.83l1.43,-1.83l1.31,-1.89c1.74956,-2.40695 3.24741,-4.98714 4.47,-7.7c2.37607,-4.9951 3.5735,-10.46906 3.5,-16c-0.09626,-4.96304 -2.07687,-9.70363 -5.54,-13.26c-3.1399,-2.95337 -7.08724,-4.90616 -11.34,-5.61c-3.55885,-0.63177 -7.20115,-0.63177 -10.76,0c-2.84397,0.49975 -5.6406,1.23905 -8.36,2.21c-2.37,0.82 -4.33,1.63 -5.92,2.3l-3.59,1.54l-1.22,0.52l1.2,-0.57c0.8,-0.36 2,-0.91 3.57,-1.59c1.57,-0.68 3.54,-1.51 5.91,-2.35c2.72053,-0.99038 5.52072,-1.74646 8.37,-2.26c3.58511,-0.65965 7.25896,-0.67658 10.85,-0.05c4.30446,0.68301 8.30796,2.63255 11.5,5.6c3.53364,3.60189 5.5613,8.41536 5.67,13.46c0.09711,5.59754 -1.10072,11.1418 -3.5,16.2c-1.22086,2.73783 -2.72221,5.34175 -4.48,7.77l-1.31,1.9l-1.38,1.84c-0.49,0.61 -0.95,1.25 -1.47,1.85l-1.56,1.79c-4.42952,4.9427 -9.35916,9.41323 -14.71,13.34c-11.05,8.21 -24.16,15 -38.14,21.48c-27.93,13.07 -59.67,25.65 -94.42,33.73c-34.75,8.08 -69.09,10.38 -99.72,6.15c-7.4792,-1.10096 -14.70419,-3.51832 -21.34,-7.14c-6.27385,-3.46294 -11.51314,-8.53311 -15.18,-14.69c-0.84831,-1.48855 -1.57404,-3.04368 -2.17,-4.65c-0.56735,-1.58428 -1.01527,-3.20882 -1.34,-4.86c-0.61771,-3.21112 -0.78599,-6.49253 -0.5,-9.75c0.30865,-3.11736 0.91474,-6.19805 1.81,-9.2c0.88971,-2.86137 1.97562,-5.658 3.25,-8.37c2.4215,-5.01036 5.33587,-9.76716 8.7,-14.2c7.71278,-10.35571 16.94717,-19.48559 27.39,-27.08c4.04393,-2.96374 8.2688,-5.67233 12.65,-8.11c2.96,-1.68 4.59,-2.46 4.59,-2.46z" fill="#ffffff"></path><path d="M422.24,188.57l-12.51,46l-38,10.5c-1.27834,0.42861 -2.02551,1.7545 -1.73,3.07v0l41.58,-10.69l1.42,-0.45l49.29,-13.2l5.51,-21.8l7.11,-25.6c0.29125,-0.68079 0.18253,-1.46678 -0.28259,-2.04294c-0.46512,-0.57616 -1.21051,-0.84819 -1.93741,-0.70706l-49.13,13.49c-0.66455,0.20554 -1.16819,0.75115 -1.32,1.43z" fill="#ffffff"></path><path d="M424.8,190.06l-11.38,41.92l44.66,-12.26l9.99,-41.32z" fill="#fafafa"></path><path d="M472.69,173.65c0.01306,0.07947 0.01306,0.16053 0,0.24c-0.05,0.19 -0.1,0.42 -0.16,0.71c-0.16,0.65 -0.38,1.56 -0.65,2.71c-0.6,2.39 -1.45,5.8 -2.5,10c-2.17,8.54 -5.18,20.38 -8.59,33.75v0.15h-0.15l-7.15,1.93l-38.49,10.27l-11.68,3.05l-3.18,0.81l-0.83,0.19l-0.29,0.05c0.08621,-0.04279 0.17672,-0.07631 0.27,-0.1l0.82,-0.24l3.16,-0.9l11.63,-3.22l38.45,-10.42l7.16,-1.92l-0.19,0.19c3.47,-13.36 6.54,-25.19 8.76,-33.71c1.11,-4.22 2,-7.61 2.65,-10c0.31,-1.14 0.56,-2 0.74,-2.69c0.08,-0.28 0.14,-0.51 0.2,-0.69c0.06,-0.18 0.02,-0.16 0.02,-0.16z" fill="#ffffff"></path><circle cx="-69.94003" cy="365.22683" transform="rotate(-30.39)" r="18.88" fill="#ffffff"></circle><g fill="#ffffff" opacity="0.3"><path d="M118.06,351.07c-1.0982,0.59056 -2.44412,0.46071 -3.40917,-0.3289c-0.96505,-0.78962 -1.35879,-2.08319 -0.99733,-3.27658c0.36146,-1.19338 1.40679,-2.05108 2.64778,-2.17253c1.24099,-0.12144 2.43277,0.51734 3.01872,1.61801c0.79698,1.49707 0.23371,3.35675 -1.26,4.16z"></path></g><g fill="#ffffff" opacity="0.3"><path d="M123.83,343c-0.87254,0.46131 -1.95383,0.1293 -2.41715,-0.74218c-0.46331,-0.87147 -0.1338,-1.95353 0.73661,-2.41885c0.8704,-0.46532 1.95322,-0.1383 2.42054,0.73103c0.45857,0.87615 0.12907,1.95815 -0.74,2.43z"></path></g><path d="M111.72,336.48c-0.25,0.23 -21.66,-6.73 -22.61,-1.48c-0.95,5.25 14.88,16.77 32.66,24.28c17.78,7.51 37.24,12.64 38.9,7.49c1.66,-5.15 -17.37,-16.24 -17.37,-16.24l-0.2,2.66c0,0 11.77,6.56 11,11.06c-0.77,4.5 -15.36,0.69 -31.47,-7.06c-16.11,-7.75 -29.22,-16.56 -27.69,-19.83c1.53,-3.27 14.84,1.19 14.84,1.19z" fill="#ffffff"></path><g fill="#ffffff" opacity="0.3"><path d="M131.23,335c-0.09,0.22 -1.65,-0.39 -4.26,-0.64c-6.87298,-0.75897 -13.54045,2.63566 -16.97,8.64c-1.33,2.26 -1.75,3.88 -2,3.82c-0.25,-0.06 -0.11,-1.77 1.06,-4.3c0.69463,-1.47854 1.60823,-2.84389 2.71,-4.05c1.35177,-1.49419 2.96057,-2.73381 4.75,-3.66c1.80143,-0.90129 3.74808,-1.47683 5.75,-1.7c1.62364,-0.18231 3.2655,-0.11825 4.87,0.19c2.71,0.58 4.16,1.56 4.09,1.7z"></path></g><path d="M104.08,51.87l1,4.48c0.38078,1.76766 -0.18776,3.60595 -1.5,4.85l-30.08,28.47c-1.7326,1.63114 -2.59223,3.98526 -2.31842,6.34905c0.27381,2.3638 1.64883,4.45907 3.70842,5.65095l19,11c2.19061,1.25797 4.84669,1.40738 7.16457,0.40304c2.31788,-1.00435 4.02522,-3.04445 4.60543,-5.50304l9.27,-40.18c0.4233,-1.84326 1.8193,-3.30829 3.64,-3.82l3.83,-1.08z" fill="#f5f5f5"></path><path d="M109.74,83.51c-2.12857,-0.66008 -4.05976,-1.83873 -5.62,-3.43c-1.49,-1.54 -2.6,-3.41 -4,-5c-1.4,-1.59 -3.3,-3 -5.44,-3.09l-18.77,18.35c-1.4294,1.39593 -2.12362,3.38008 -1.87629,5.36267c0.24733,1.98258 1.40774,3.73537 3.13629,4.73733l17,9.9c1.72227,1.00241 3.81318,1.14538 5.65587,0.38675c1.84269,-0.75864 3.22685,-2.33231 3.74413,-4.25675z" fill="#ffffff"></path><g fill="#ffffff" opacity="0.3"><path d="M80.6,99.6c0,0.06 -0.48,-0.11 -1,-0.74c-0.71262,-0.95097 -1.08901,-2.1118 -1.07,-3.3c-0.00411,-0.81863 0.13812,-1.63141 0.42,-2.4c0.31843,-0.86136 0.7524,-1.67547 1.29,-2.42c1.24526,-1.59722 2.60198,-3.10432 4.06,-4.51c5.93,-6.07 10.94,-10.78 11.21,-10.52c0.27,0.26 -4.33,5.38 -10.26,11.45c-1.40933,1.36071 -2.74459,2.79611 -4,4.3c-0.50334,0.65009 -0.9264,1.35855 -1.26,2.11c-0.27103,0.63615 -0.43978,1.31115 -0.5,2c-0.09734,1.03268 0.09666,2.07198 0.56,3c0.31,0.64 0.62,0.95 0.55,1.03z"></path></g><path d="M107.31,86.34c-0.2448,0.00699 -0.48962,-0.01314 -0.73,-0.06c-0.47,0 -1.14,-0.15 -2,-0.32c-0.98004,-0.20732 -1.92829,-0.54358 -2.82,-1c-0.52607,-0.27696 -1.01919,-0.61242 -1.47,-1c-0.47061,-0.40937 -0.90244,-0.86128 -1.29,-1.35c-0.78,-1 -1.39,-2.1 -2,-3c-0.54961,-0.79995 -1.225,-1.50573 -2,-2.09c-0.5278,-0.39136 -1.13019,-0.67043 -1.77,-0.82c-0.45,-0.1 -0.71,-0.1 -0.71,-0.13c0,-0.03 0.06,0 0.19,0c0.17983,-0.01111 0.36017,-0.01111 0.54,0c0.66905,0.12264 1.3036,0.38874 1.86,0.78c0.81863,0.57373 1.53239,1.2841 2.11,2.1c0.67,0.89 1.29,2 2.06,3c0.36577,0.49452 0.78128,0.95023 1.24,1.36c0.42832,0.38852 0.9017,0.72425 1.41,1c0.86927,0.44351 1.7894,0.77932 2.74,1c0.82,0.19 1.49,0.31 1.95,0.4c0.23238,0.02957 0.46279,0.07298 0.69,0.13z" fill="#fafafa"></path><path d="M143.54,46.9c-0.44475,-1.98611 -1.53485,-3.76895 -3.1,-5.07c-2.5062,-2.49776 -5.72931,-4.15127 -9.22,-4.73c-3.74983,-0.51766 -7.54739,0.53119 -10.5,2.9c-2.85072,2.27318 -4.59087,5.65882 -4.78,9.3c-0.34,2.36 2.12,4.35 4.49,4.47c2.37,0.12 4.61,-1 6.74,-2.07c2.13,-1.07 4.48,-2.06 6.82,-1.62c2.34,0.44 4.6,2.34 6.91,1.65c1.93,-0.53 2.95,-2.84 2.64,-4.83z" fill="#f5f5f5"></path><path d="M159.23,43c-0.14,-1.85 -1.57,-4.78 -5,-4.35c-1.4,0 -2.91,1.73 -3.27,3.09c-0.33118,1.39595 0.14775,2.85976 1.24,3.79c1.11749,0.91247 2.59459,1.2559 4,0.93c1.63,-0.35 3.16,-1.79 3.03,-3.46z" fill="#f5f5f5"></path><path d="M29.15,192.48l-0.52,1.39c-0.32112,0.87095 -0.25938,1.83702 0.17,2.66l28.29,54.15c0.41574,0.79603 1.13795,1.38825 2,1.64l1.6,0.43c0.36075,0.10116 0.73642,0.13839 1.11,0.11l33,-2.6c1.62927,-0.13251 2.9104,-1.44781 3,-3.08v0c0.03101,-0.59713 -0.1003,-1.19151 -0.38,-1.72l-30,-55.94c-0.61479,-1.14241 -1.84679,-1.81334 -3.14,-1.71l-32.28,2.55c-1.28446,0.08413 -2.40006,0.91399 -2.85,2.12z" fill="#ffffff"></path><path d="M31.22,191.71l30.02,56.12l34.01,-2.68l-29.79,-56.13z" fill="#fafafa"></path><path d="M64.7,234.29c2.54379,-1.03671 5.44754,0.17285 6.50312,2.70886c1.05558,2.53601 -0.13237,5.44868 -2.66047,6.52307c-2.5281,1.07439 -5.44951,-0.09188 -6.54266,-2.61193c-0.53541,-1.23428 -0.5508,-2.63225 -0.04271,-3.87802c0.50809,-1.24577 1.4968,-2.23421 2.74271,-2.74198z" fill="#ffffff"></path><path d="M66.73,236.57l-0.13,0.91c-0.02124,0.11185 0.04254,0.2224 0.15,0.26l0.17,0.07c0,0 0.31,0.09 0.21,0.37c-0.1,0.28 -0.58,1.45 -0.58,1.45c0,0 -0.13,0.34 -0.38,0.22l-0.25,-0.1c-0.0898,-0.03042 -0.18906,-0.00263 -0.25,0.07l-0.63,0.79c-0.06862,0.08449 -0.06862,0.20551 0,0.29l0.24,0.22c0.03899,0.04746 0.0912,0.08226 0.15,0.1c0.15668,0.04611 0.32332,0.04611 0.48,0c0.88244,-0.51323 1.51519,-1.36654 1.75,-2.36c0.54,-1.57 0,-2.16 -0.09,-2.31c-0.11062,-0.11765 -0.25951,-0.19209 -0.42,-0.21h-0.15c-0.06635,-0.00552 -0.13217,0.01565 -0.18285,0.05883c-0.05068,0.04318 -0.08205,0.10479 -0.08715,0.17117z" fill="#ffffff"></path><path d="M77.9,240.71c-2.07164,-1.80596 -2.29735,-4.94539 -0.50535,-7.02913c1.792,-2.08373 4.92984,-2.33053 7.02557,-0.55257c2.09573,1.77796 2.36361,4.91407 0.59978,7.0217c-0.86228,1.03035 -2.10294,1.67032 -3.44236,1.77567c-1.33942,0.10535 -2.66488,-0.33279 -3.67764,-1.21567z" fill="#ffffff"></path><path d="M79,237.88l0.88,-0.29c0.10863,-0.03268 0.17954,-0.13696 0.17,-0.25v-0.18c-0.01782,-0.07828 -0.00352,-0.16045 0.03971,-0.2281c0.04323,-0.06766 0.11177,-0.11517 0.19029,-0.1319c0.21,0 1.56,-0.12 1.56,-0.12c0,0 0.36,0 0.37,0.25v0.26c0.00734,0.09442 0.07697,0.17225 0.17,0.19l1,0.22c0.10647,0.02144 0.21264,-0.03802 0.25,-0.14l0.1,-0.31c0.01482,-0.05909 0.01482,-0.12091 0,-0.18c-0.03122,-0.1573 -0.09982,-0.30478 -0.2,-0.43c-0.85197,-0.56963 -1.90162,-0.76147 -2.9,-0.53c-1.64,0.21 -2,0.94 -2,1.11c-0.04966,0.15273 -0.04966,0.31727 0,0.47l0.09,0.16c0.05224,0.10267 0.16786,0.15635 0.28,0.13z" fill="#ffffff"></path><path d="M63.38,212.67c1.27,-0.89 1.65,-2.68 0.78,-4.6c-1.13,-2.51 -4,-4.27 -6.34,-3.94c-2.34,0.33 -3.35,2.65 -2.21,5.15c0.89513,1.92093 2.61231,3.33291 4.67,3.84c-6.11,2 -2.53,9 -2.53,9l16.74,-1.31c0,0 -4.16,-8.12 -11.11,-8.14z" fill="#ffffff"></path><path d="M83.13,226.52c0,0.27 -6,0.95 -13.45,1.54c-7.45,0.59 -13.51,0.85 -13.53,0.59c-0.02,-0.26 6,-1 13.45,-1.54c7.45,-0.54 13.51,-0.85 13.53,-0.59z" fill="#ffffff"></path><path d="M91.12,418.38l1.09,1.82c1.22181,2.06357 3.0136,3.73036 5.16,4.8l1.91,0.94l-1.82,1.06c-2.04762,1.22618 -3.69715,3.01809 -4.75,5.16l-0.95,1.9l-1.09,-1.82c-1.23191,-2.04295 -3.02228,-3.69106 -5.16,-4.75l-1.91,-0.94l1.83,-1.1c2.04011,-1.23095 3.68765,-3.01723 4.75,-5.15z" fill="#ffffff"></path><path d="M443.85,60.61l1.09,1.82c1.23191,2.04295 3.02228,3.69106 5.16,4.75l1.9,0.94l-1.82,1.09c-2.04295,1.23191 -3.69106,3.02228 -4.75,5.16l-0.94,1.91l-1.09,-1.82c-1.22618,-2.04762 -3.01809,-3.69715 -5.16,-4.75l-1.91,-0.94l1.82,-1.1c2.04762,-1.22618 3.69715,-3.01809 4.75,-5.16z" fill="#ffffff"></path><path d="M456.38,88.86l0.95,1.58c1.06949,1.77526 2.62379,3.20813 4.48,4.13l1.66,0.82l-1.58,1c-1.77811,1.07043 -3.21155,2.62882 -4.13,4.49l-0.82,1.65l-0.94,-1.63c-1.07043,-1.77811 -2.62882,-3.21155 -4.49,-4.13l-1.66,-0.77l1.58,-1c1.77526,-1.06949 3.20813,-2.62379 4.13,-4.48z" fill="#ffffff"></path><path d="M70,397.81l0.77,1.29c0.87057,1.4458 2.13724,2.61182 3.65,3.36l1.35,0.67l-1.29,0.77c-1.4458,0.87057 -2.61182,2.13724 -3.36,3.65l-0.67,1.35l-0.77,-1.29c-0.88126,-1.44792 -2.1581,-2.61373 -3.68,-3.36l-1.35,-0.67l1.29,-0.77c1.4458,-0.87057 2.61182,-2.13724 3.36,-3.65z" fill="#ffffff"></path><path d="M400.79,411.93l0.78,1.29c0.86478,1.45051 2.13302,2.61798 3.65,3.36l1.34,0.67l-1.29,0.78c-1.44296,0.86962 -2.60841,2.13219 -3.36,3.64l-0.66,1.35l-0.78,-1.29c-0.87057,-1.4458 -2.13724,-2.61182 -3.65,-3.36l-1.35,-0.66l1.29,-0.78c1.45051,-0.86478 2.61798,-2.13302 3.36,-3.65z" fill="#ffffff"></path><path d="M60.33,43.23l0.77,1.29c0.87057,1.4458 2.13724,2.61182 3.65,3.36l1.35,0.67l-1.29,0.77c-1.45008,0.87864 -2.61654,2.15619 -3.36,3.68l-0.67,1.35l-0.78,-1.35c-0.87318,-1.44367 -2.13914,-2.60905 -3.65,-3.36l-1.35,-0.64l1.29,-0.78c1.44367,-0.87318 2.60905,-2.13914 3.36,-3.65z" fill="#ffffff"></path><path d="M444.71,278.62l0.78,1.29c0.86792,1.44795 2.13531,2.61464 3.65,3.36l1.35,0.67l-1.29,0.77c-1.44832,0.86748 -2.61511,2.13498 -3.36,3.65l-0.67,1.35l-0.78,-1.29c-0.86962,-1.44296 -2.13219,-2.60841 -3.64,-3.36l-1.35,-0.66l1.29,-0.78c1.44367,-0.87318 2.60905,-2.13914 3.36,-3.65z" fill="#ffffff"></path><path d="M57,136.16l0.78,1.28c0.86478,1.45051 2.13302,2.61798 3.65,3.36l1.34,0.67l-1.28,0.78c-1.45051,0.86478 -2.61798,2.13302 -3.36,3.65l-0.67,1.34l-0.75,-1.24c-0.87057,-1.4458 -2.13724,-2.61182 -3.65,-3.36l-1.34,-0.66l1.28,-0.78c1.45093,-0.86732 2.621,-2.1346 3.37,-3.65z" fill="#ffffff"></path></g><g id="freepik--Floor--inject-4" fill="#172227"><path d="M457.88,463c0,0.14 -88.74,0.26 -198.17,0.26c-109.43,0 -198.19,-0.15 -198.19,-0.26c0,-0.11 88.71,-0.26 198.19,-0.26c109.48,0 198.17,0.08 198.17,0.26z"></path></g><g id="freepik--Sparkles--inject-4" fill="#ff4864"><path d="M109.78,152.59l0.72,1.2c0.80685,1.34404 1.98377,2.42722 3.39,3.12l1.26,0.62l-1.2,0.73c-1.34665,0.80668 -2.43311,1.98339 -3.13,3.39l-0.62,1.25l-0.72,-1.19c-0.81025,-1.34736 -1.99035,-2.43374 -3.4,-3.13l-1.25,-0.62l1.2,-0.72c1.34439,-0.81086 2.42738,-1.99105 3.12,-3.4z"></path><path d="M369.35,284.28l0.72,1.2c0.80931,1.34452 1.98531,2.43032 3.39,3.13l1.26,0.62l-1.2,0.72c-1.34736,0.81025 -2.43374,1.99035 -3.13,3.4l-0.62,1.25l-0.72,-1.2c-0.81232,-1.34207 -1.98751,-2.42713 -3.39,-3.13l-1.26,-0.62l1.2,-0.72c1.34665,-0.80668 2.43311,-1.98339 3.13,-3.39z"></path><path d="M228.36,37l0.72,1.2c0.80668,1.34665 1.98339,2.43311 3.39,3.13l1.26,0.62l-1.2,0.72c-1.33609,0.79311 -2.42106,1.9474 -3.13,3.33l-0.62,1.26l-0.72,-1.2c-0.81025,-1.34736 -1.99035,-2.43374 -3.4,-3.13l-1.25,-0.62l1.2,-0.72c1.34189,-0.80948 2.42441,-1.98569 3.12,-3.39z"></path><path d="M397.14,150l0.72,1.2c0.81025,1.34736 1.99035,2.43374 3.4,3.13l1.25,0.62l-1.2,0.72c-1.34189,0.80948 -2.42441,1.98569 -3.12,3.39l-0.62,1.26l-0.72,-1.2c-0.81025,-1.34736 -1.99035,-2.43374 -3.4,-3.13l-1.25,-0.62l1.19,-0.72c1.34452,-0.80931 2.43032,-1.98531 3.13,-3.39z"></path><path d="M137.12,198.8l0.52,0.87c0.59197,0.98124 1.45256,1.77243 2.48,2.28l0.92,0.45l-0.88,0.53c-0.98124,0.59197 -1.77243,1.45256 -2.28,2.48l-0.45,0.91l-0.53,-0.87c-0.59197,-0.98124 -1.45256,-1.77243 -2.48,-2.28l-0.91,-0.45l0.87,-0.53c0.98377,-0.58887 1.77573,-1.4503 2.28,-2.48z"></path><path d="M161,310.86l0.53,0.88c0.59222,0.97243 1.44891,1.75628 2.47,2.26l0.92,0.45l-0.88,0.53c-0.98124,0.59197 -1.77243,1.45256 -2.28,2.48l-0.45,0.91l-0.53,-0.87c-0.58928,-0.97982 -1.44624,-1.77087 -2.47,-2.28l-0.92,-0.46l0.88,-0.52c0.98124,-0.59197 1.77243,-1.45256 2.28,-2.48z"></path><path d="M389.3,116l0.52,0.87c0.58887,0.98377 1.4503,1.77573 2.48,2.28l0.92,0.46l-0.88,0.52c-0.98124,0.59197 -1.77243,1.45256 -2.28,2.48l-0.45,0.92l-0.53,-0.88c-0.59197,-0.98124 -1.45256,-1.77243 -2.48,-2.28l-0.91,-0.45l0.87,-0.53c0.98377,-0.58887 1.77573,-1.4503 2.28,-2.48z"></path><path d="M90.3,175.16l0.52,0.87c0.59048,0.98494 1.45122,1.77973 2.48,2.29l0.92,0.45l-0.88,0.52c-0.97704,0.5971 -1.76697,1.45632 -2.28,2.48l-0.45,0.92l-0.53,-0.88c-0.59197,-0.98124 -1.45256,-1.77243 -2.48,-2.28l-0.91,-0.45l0.87,-0.53c0.98377,-0.58887 1.77573,-1.4503 2.28,-2.48z"></path><path d="M414.58,121.42l0.3,0.5c0.33952,0.56001 0.83227,1.01111 1.42,1.3l0.53,0.26l-0.5,0.3c-0.57256,0.33321 -1.03493,0.82688 -1.33,1.42l-0.26,0.53l-0.3,-0.5c-0.33625,-0.56516 -0.82962,-1.02031 -1.42,-1.31l-0.52,-0.26l0.5,-0.3c0.56001,-0.33952 1.01111,-0.83227 1.3,-1.42z"></path><path d="M395.89,265.38l0.3,0.51c0.33952,0.56001 0.83227,1.01111 1.42,1.3l0.52,0.26l-0.5,0.3c-0.56299,0.33891 -1.01748,0.83157 -1.31,1.42l-0.26,0.53l-0.3,-0.51c-0.33952,-0.56001 -0.83227,-1.01111 -1.42,-1.3l-0.52,-0.26l0.5,-0.3c0.56299,-0.33891 1.01748,-0.83157 1.31,-1.42z"></path><path d="M266.57,25.73l0.3,0.5c0.33952,0.56001 0.83227,1.01111 1.42,1.3l0.53,0.26l-0.5,0.31c-0.56852,0.33068 -1.02748,0.82094 -1.32,1.41l-0.26,0.53l-0.3,-0.5c-0.3443,-0.56584 -0.8442,-1.02062 -1.44,-1.31l-0.5,-0.23l0.51,-0.3c0.56001,-0.33952 1.01111,-0.83227 1.3,-1.42z"></path><path d="M209.3,51.26l0.3,0.5c0.33352,0.56017 0.81893,1.01438 1.4,1.31l0.52,0.26l-0.5,0.3c-0.56001,0.33952 -1.01111,0.83227 -1.3,1.42l-0.26,0.52l-0.31,-0.5c-0.33491,-0.56264 -0.82429,-1.01731 -1.41,-1.31l-0.53,-0.26l0.5,-0.3c0.55776,-0.33925 1.0057,-0.83233 1.29,-1.42z"></path><path d="M167.44,324l0.3,0.5c0.33891,0.56299 0.83157,1.01748 1.42,1.31l0.52,0.26l-0.5,0.3c-0.56001,0.33952 -1.01111,0.83227 -1.3,1.42l-0.26,0.52l-0.3,-0.5c-0.34147,-0.5609 -0.83344,-1.01476 -1.42,-1.31l-0.53,-0.26l0.5,-0.3c0.56516,-0.33625 1.02031,-0.82962 1.31,-1.42z"></path></g><g id="freepik--light-bulb--inject-4"><path d="M314.58,397.83l-124,-0.29c-5.14,0 -9.3,-3.63 -9.29,-8.08v0c0,-4.44 4.19,-8 9.33,-8l124,0.29c5.14,0 9.29,3.62 9.28,8.07v0c-0.01,4.42 -4.18,8.02 -9.32,8.01z" fill="#455a64"></path><path d="M314.58,378.27l-124,-0.28c-5.14,0 -9.3,-3.63 -9.29,-8.08v0c0,-4.45 4.19,-8 9.33,-8l124,0.28c5.14,0 9.29,3.63 9.28,8.08v0c-0.01,4.42 -4.18,8.01 -9.32,8z" fill="#455a64"></path><path d="M309.6,400.75l-113.52,-0.26c-4.46851,0.30672 -7.93656,4.02097 -7.93656,8.5c0,4.47903 3.46805,8.19328 7.93656,8.5h12.46l16.46,31.57c1.89051,3.59502 5.60828,5.85567 9.67,5.88l40.57,0.09c4.10878,0.01298 7.87838,-2.27736 9.76,-5.93l16.14,-31.33h8.47c4.46851,-0.30672 7.93656,-4.02097 7.93656,-8.5c0,-4.47903 -3.46805,-8.19328 -7.93656,-8.5z" fill="#455a64"></path><path d="M348.59,268.67v0c0,0 -0.31,0.48 -0.92,1.37l-2.7,4l-1.97,2.96c-0.72,1.09 -1.43,2.34 -2.25,3.66l-2.6,4.3c-0.95,1.52 -1.77,3.25 -2.75,5c-0.48,0.9 -1,1.82 -1.48,2.76c-0.25,0.48 -0.5,1 -0.76,1.44c-0.26,0.44 -0.47,1 -0.71,1.51c-1,2.05 -2,4.19 -3,6.44l-2.94,7.19c-0.93,2.53 -1.85,5.19 -2.8,7.94c-1.92564,5.93176 -3.4984,11.97233 -4.71,18.09c-1.36659,6.89873 -2.03662,13.91731 -2,20.95v0.17h-0.16l-132.35,0.07h-0.21v-0.21c-1.38992,-15.49002 -5.42856,-30.62649 -11.94,-44.75c-3.40942,-7.49085 -7.34249,-14.73212 -11.77,-21.67c-2.24,-3.53 -4.62,-7 -7.15,-10.41c-2.53,-3.41 -5.29,-6.66 -8,-10l-0.33,-0.4h0.53l-0.19,0.4c-12.39732,-15.94085 -20.8567,-34.583 -24.69,-54.41c-0.54,-2.54 -0.87,-5.12 -1.27,-7.7c-0.16,-1.3 -0.28,-2.6 -0.42,-3.9l-0.2,-2l-0.13,-2c-0.07,-1.31 -0.19,-2.62 -0.23,-3.94c-0.04,-1.32 0,-2.64 -0.08,-4c-0.08,-1.36 0,-2.64 0,-4c0,-1.36 0,-2.66 0.12,-4c0.60539,-10.7295 2.51957,-21.34483 5.7,-31.61c9.23236,-28.94978 28.3878,-53.71126 54.09,-69.92c6.12294,-3.85849 12.55493,-7.20325 19.23,-10c6.55468,-2.726 13.32902,-4.89045 20.25,-6.47c13.41327,-3.09012 27.23395,-4.01848 40.94,-2.75c6.59343,0.62437 13.1314,1.73743 19.56,3.33c6.2457,1.6085 12.37076,3.65353 18.33,6.12c5.75158,2.47645 11.33368,5.3293 16.71,8.54c5.16675,3.17693 10.12061,6.68772 14.83,10.51c8.90175,7.31684 16.78793,15.78819 23.45,25.19c6.15689,8.66584 11.19663,18.07335 15,28c1,2.34 1.69,4.74 2.51,7.08c0.82,2.34 1.36,4.72 2,7c0.53,2.36 1.11,4.67 1.57,7c0.2,1.16 0.41,2.3 0.61,3.44c0.2,1.14 0.42,2.27 0.54,3.41c1.23328,8.50411 1.61851,17.10971 1.15,25.69c-0.81522,13.7811 -3.85448,27.33957 -9,40.15c-1.88372,4.65319 -4.02709,9.197 -6.42,13.61c-2.12,3.82 -4.06,7 -5.72,9.44l-2.21,3.25l-1.7,2.27l-1.39,1.86l1.34,-1.86l1.68,-2.31l2.2,-3.27c1.64,-2.48 3.56,-5.63 5.66,-9.45c2.37287,-4.41906 4.49945,-8.96601 6.37,-13.62c8.25598,-20.87017 10.9205,-43.53411 7.73,-65.75c-0.12,-1.14 -0.34,-2.26 -0.54,-3.4c-0.2,-1.14 -0.41,-2.28 -0.62,-3.43c-0.45,-2.3 -1,-4.6 -1.57,-7c-0.57,-2.4 -1.28,-4.67 -2,-7c-0.72,-2.33 -1.52,-4.73 -2.51,-7.06c-3.80317,-9.88922 -8.84325,-19.25706 -15,-27.88c-6.65423,-9.35107 -14.5233,-17.77501 -23.4,-25.05c-4.70235,-3.7979 -9.6424,-7.29167 -14.79,-10.46c-5.35793,-3.19811 -10.92367,-6.03443 -16.66,-8.49c-5.93658,-2.45499 -12.03826,-4.49 -18.26,-6.09c-6.40781,-1.5907 -12.9262,-2.69716 -19.5,-3.31c-13.65355,-1.26007 -27.42075,-0.3283 -40.78,2.76c-6.89441,1.5729 -13.64218,3.73071 -20.17,6.45c-6.64873,2.79837 -13.054,6.14316 -19.15,10c-25.63168,16.20004 -44.70947,40.94165 -53.86,69.85c-3.1689,10.22613 -5.07637,20.80116 -5.68,31.49c-0.07,1.32 -0.08,2.64 -0.12,4c-0.04,1.36 -0.11,2.63 -0.05,3.95c0.06,1.32 0.05,2.63 0.08,3.94c0.03,1.31 0.15,2.62 0.23,3.92l0.12,2l0.2,2c0.14,1.29 0.27,2.59 0.43,3.88c0.39,2.57 0.72,5.14 1.25,7.67c3.81505,19.74888 12.2366,38.31877 24.58,54.2l0.32,0.41h-0.52l0.2,-0.41c2.73,3.31 5.54,6.55 8,10c2.46,3.45 4.92,6.91 7.16,10.45c4.44401,6.95241 8.3841,14.21434 11.79,21.73c6.54173,14.17256 10.60074,29.36337 12,44.91l-0.22,-0.21l132.35,0.07l-0.16,0.17c-0.01812,-7.05131 0.67201,-14.08662 2.06,-21c1.20537,-6.13266 2.76803,-12.18964 4.68,-18.14c1,-2.75 1.89,-5.41 2.83,-7.94c0.94,-2.53 2,-4.9 3,-7.2c1,-2.3 2.07,-4.39 3,-6.43l0.71,-1.51l0.77,-1.44c0.51,-0.94 1,-1.86 1.49,-2.76c1,-1.77 1.82,-3.5 2.77,-5l2.62,-4.29c0.82,-1.32 1.54,-2.57 2.27,-3.65c0.73,-1.08 1.41,-2.06 2,-2.93l2.74,-4l1,-1.35v0z" fill="#172227"></path><path d="M136.73,233.6c-0.05058,-0.08725 -0.08766,-0.18165 -0.11,-0.28c-0.08,-0.22 -0.17,-0.5 -0.29,-0.85c-0.26,-0.78 -0.61,-1.87 -1.06,-3.26l-0.76,-2.36c-0.25,-0.87 -0.47,-1.83 -0.73,-2.85c-0.5,-2.06 -1.17,-4.38 -1.6,-7c-0.24,-1.31 -0.49,-2.68 -0.76,-4.11c-0.27,-1.43 -0.39,-2.94 -0.6,-4.5c-0.47,-3.1 -0.62,-6.44 -0.85,-10c-0.29828,-7.64119 0.03619,-15.29397 1,-22.88c1.08206,-7.57021 2.78446,-15.03868 5.09,-22.33c1.16,-3.33 2.2,-6.51 3.48,-9.38c0.62,-1.44 1.15,-2.86 1.78,-4.17l1.83,-3.76c1.11,-2.42 2.38,-4.48 3.4,-6.33c0.53,-0.91 1,-1.78 1.47,-2.55l1.36,-2.08l1.89,-2.86l0.5,-0.73c0.12,-0.17 0.18,-0.25 0.19,-0.24c0.01,0.01 0,0.09 -0.14,0.27l-0.46,0.76l-1.81,2.91l-1.32,2.09c-0.46,0.78 -0.91,1.66 -1.42,2.58c-1,1.86 -2.25,3.92 -3.33,6.35l-1.8,3.76c-0.61,1.31 -1.13,2.73 -1.74,4.17c-1.26,2.86 -2.28,6 -3.42,9.36c-2.25961,7.27086 -3.93165,14.71144 -5,22.25c-0.96658,7.55574 -1.3244,15.17694 -1.07,22.79c0.22,3.5 0.35,6.84 0.8,9.93c0.2,1.55 0.32,3.06 0.57,4.49c0.25,1.43 0.49,2.79 0.73,4.1c0.39,2.63 1,5 1.51,7c0.25,1 0.46,2 0.69,2.86c0.23,0.86 0.5,1.65 0.71,2.37c0.41,1.4 0.74,2.5 1,3.28l0.24,0.86c0.02747,0.11111 0.03759,0.2258 0.03,0.34z" fill="#172227"></path><path d="M174.93,99c-2.17668,2.21766 -4.47347,4.31415 -6.88,6.28c-2.29448,2.10102 -4.70851,4.06764 -7.23,5.89c2.1788,-2.2191 4.479,-4.31565 6.89,-6.28c2.29308,-2.09859 4.70364,-4.0651 7.22,-5.89z" fill="#172227"></path><path d="M350,248.11c0,0 0,-0.08 0.09,-0.23l0.3,-0.65l1.19,-2.46l0.87,-1.77c0.31,-0.65 0.61,-1.38 1,-2.15c0.66,-1.55 1.49,-3.28 2.22,-5.27l1.2,-3.11c0.41,-1.08 0.76,-2.23 1.16,-3.41c0.84,-2.35 1.53,-4.92 2.3,-7.62c1.53987,-5.87866 2.69564,-11.85127 3.46,-17.88c0.69181,-6.041 0.99577,-12.12012 0.91,-18.2c-0.11,-2.8 -0.16,-5.47 -0.42,-8c-0.11,-1.24 -0.18,-2.44 -0.32,-3.59c-0.14,-1.15 -0.29,-2.25 -0.42,-3.3c-0.23,-2.11 -0.62,-4 -0.89,-5.65c-0.15,-0.83 -0.27,-1.61 -0.41,-2.32c-0.14,-0.71 -0.3,-1.34 -0.43,-1.92l-0.57,-2.68c-0.05,-0.28 -0.1,-0.51 -0.13,-0.7c-0.01343,-0.07944 -0.01343,-0.16056 0,-0.24c0.03364,0.07406 0.06042,0.15105 0.08,0.23c0.05,0.19 0.11,0.41 0.18,0.69c0.17,0.65 0.39,1.53 0.67,2.65l0.47,1.92c0.16,0.71 0.29,1.48 0.45,2.31c0.3,1.66 0.72,3.55 1,5.66l0.46,3.3c0.15,1.16 0.23,2.36 0.35,3.61c0.28,2.48 0.35,5.16 0.47,8c0.30778,12.22203 -1.16773,24.42365 -4.38,36.22c-0.79,2.7 -1.5,5.28 -2.36,7.63c-0.42,1.18 -0.77,2.33 -1.2,3.41l-1.23,3.1c-0.75,2 -1.6,3.72 -2.29,5.26c-0.36,0.77 -0.67,1.49 -1,2.14l-0.92,1.75l-1.28,2.42l-0.34,0.62c-0.06447,0.09138 -0.14596,0.16947 -0.24,0.23z" fill="#172227"></path></g><g id="freepik--Rocket--inject-4"><path d="M118.37,300.86l0.07,13.87c0,0 23,-13 16.26,-25.45z" fill="#ff4864"></path><path d="M120.61,268.82c0,0 -16.61,-6.07 -29.17,5.18l12.92,7.29z" fill="#ff4864"></path><path d="M104.36,281.33c0.52,0.68 14,19.53 14,19.53l35.22,-25c2.9325,-2.07674 4.86235,-5.2857 5.32208,-8.84955c0.45973,-3.56385 -0.5926,-7.15751 -2.90208,-9.91045v0c-4.44005,-5.24789 -12.22045,-6.08009 -17.67,-1.89z" fill="#f5f5f5"></path><path d="M104.36,281.33c0.08601,-0.08817 0.17971,-0.16849 0.28,-0.24l0.88,-0.71l3.44,-2.69l12.76,-9.94l8.85,-6.86l4.94,-3.82l2.59,-2c0.90117,-0.6905 1.88555,-1.265 2.93,-1.71c0.52981,-0.2322 1.07432,-0.42929 1.63,-0.59c0.56575,-0.1488 1.14019,-0.26236 1.72,-0.34c1.18058,-0.16998 2.37942,-0.16998 3.56,0c2.45224,0.33042 4.75926,1.35383 6.65,2.95c0.96669,0.81567 1.8119,1.76527 2.51,2.82c0.70259,1.07494 1.25125,2.24294 1.63,3.47c0.73704,2.53934 0.70223,5.2405 -0.1,7.76c-0.77101,2.40723 -2.22708,4.53747 -4.19,6.13c-2,1.5 -3.93,2.81 -5.85,4.2l-11.12,7.86l-19,13.4l-0.16,0.11l-0.11,-0.15c-4.29,-6.06 -7.77,-11 -10.2,-14.4l-2.73,-3.9l-0.7,-1c-0.08354,-0.10639 -0.15718,-0.2202 -0.22,-0.34c0.09697,0.11112 0.18713,0.228 0.27,0.35c0.19,0.24 0.44,0.58 0.76,1l2.83,3.87l10.3,14.19h-0.26l18.93,-13.49c3.55,-2.51 7.26,-5.15 11.1,-7.88c1.91,-1.38 3.92,-2.72 5.82,-4.18c1.87525,-1.53485 3.26478,-3.58093 4,-5.89c0.76867,-2.41937 0.8,-5.01276 0.09,-7.45c-0.35947,-1.18149 -0.8847,-2.30602 -1.56,-3.34c-1.99864,-3.0312 -5.20426,-5.05657 -8.8,-5.56c-1.13403,-0.16495 -2.28597,-0.16495 -3.42,0c-0.55962,0.07095 -1.1141,0.17784 -1.66,0.32c-0.536,0.14904 -1.06067,0.33618 -1.57,0.56c-2.07,0.83 -3.69,2.36 -5.41,3.62l-4.92,3.76l-8.85,6.72l-12.88,9.79l-3.53,2.67l-0.94,0.69z" fill="#172227"></path><path d="M121.24,280.25l-22,15.83c0,0 1,2.41 1.55,2.17c0.55,-0.24 17.09,-11.5 22.46,-15.16c0.41753,-0.28634 0.68964,-0.74034 0.74534,-1.24355c0.0557,-0.50321 -0.11054,-1.00573 -0.45534,-1.37645v0c-0.59817,-0.64957 -1.58954,-0.7444 -2.3,-0.22z" fill="#ff4864"></path><path d="M144.07,270.31c0.19229,2.97153 -1.42491,5.76615 -4.0971,7.08005c-2.67219,1.31391 -5.87281,0.88819 -8.10864,-1.07854c-2.23583,-1.96673 -3.06629,-5.08691 -2.10393,-7.90486c0.96236,-2.81795 3.52789,-4.77837 6.49968,-4.96665c4.05281,-0.25677 7.54776,2.81754 7.81,6.87z" fill="#ffffff"></path><path d="M144.07,270.31c0,0 -0.07,-0.65 -0.44,-1.74c-0.53048,-1.54477 -1.5617,-2.86811 -2.93,-3.76c-2.03299,-1.32795 -4.60048,-1.53501 -6.82,-0.55c-2.74089,1.21524 -4.43624,4.00758 -4.25,7c0.10916,1.50826 0.68593,2.94495 1.65,4.11c1.75243,2.10986 4.55974,3.02748 7.22,2.36c1.08294,-0.26293 2.08745,-0.78061 2.93,-1.51c1.2489,-1.05377 2.10519,-2.49854 2.43,-4.1c0.10018,-0.59274 0.17027,-1.19017 0.21,-1.79c0.04528,0.15239 0.06555,0.31112 0.06,0.47c0.03151,0.45489 0.00462,0.91194 -0.08,1.36c-0.46237,2.90559 -2.6021,5.26126 -5.45,6c-2.81955,0.74434 -5.81539,-0.20623 -7.69,-2.44c-1.04166,-1.23797 -1.66167,-2.77572 -1.77,-4.39c-0.19869,-3.19003 1.61976,-6.16349 4.55,-7.44c1.24409,-0.53228 2.60698,-0.7255 3.95,-0.56c2.90802,0.3791 5.32521,2.42471 6.18,5.23c0.13888,0.43107 0.22287,0.87792 0.25,1.33c0.02112,0.1392 0.02112,0.2808 0,0.42z" fill="#172227"></path><path d="M155.23,274.51c11.83,-11.06 9.72,-23.87 9.72,-23.87c-15.91,-4.18 -26.65,4.57 -26.65,4.57c10.59,1.49 16.26,7.9 16.93,19.3z" fill="#ff4864"></path></g><g id="freepik--Character--inject-4"><path d="M280.89,227.42l4.11,37.77l24.32,8.11l1,11.76l-34.32,-2.3c0,0 -10.58,0.26 -12.88,-13.68l-0.56,-36.64z" fill="#ffbe9d"></path><path d="M331.36,284.86c-0.44204,0.52469 -1.16131,0.72338 -1.81,0.5c-0.13908,-0.04268 -0.27066,-0.10679 -0.39,-0.19c-0.86,-0.54 -0.27,-2.43 -0.27,-2.43l-4.28,-1.91c0,0 -6.83,2.22 -9.56,4.16c-2.73,1.94 -7.49,-1.47 -7.49,-1.47l0.69,-10l10.22,-5.28c0,0 -0.62,0.31 0.32,-0.94c0.94,-1.25 3.39,0 3.39,0c0.58,-0.58 2.34,-0.38 2.34,-0.38l7,2.74c1.43825,0.57113 2.54103,1.76213 3,3.24l1.78,5.65c0,0 0.7,3.92 0.23,4.66c-0.42118,0.64097 -1.25805,0.86097 -1.94,0.51c0,0 -1,2.19 -1.59,2.12c-0.61167,-0.19632 -1.1814,-0.50493 -1.68,-0.91z" fill="#ffbe9d"></path><path d="M317,283.87c0.1801,-0.05618 0.35426,-0.12987 0.52,-0.22l1.48,-0.65c1.83198,-0.77761 3.70863,-1.44546 5.62,-2h-0.11l4.28,1.95l-0.11,-0.23c-0.10782,0.36139 -0.17491,0.7337 -0.2,1.11c-0.04745,0.41943 0.02904,0.84356 0.22,1.22c0.13025,0.18864 0.31025,0.33749 0.52,0.43c0.19153,0.10672 0.40221,0.17468 0.62,0.2c0.45101,0.04701 0.90417,-0.06628 1.28,-0.32c0.09668,-0.06473 0.18708,-0.13838 0.27,-0.22l0.06,-0.06v0v0h-0.28v0l0.12,0.1l0.53,0.35c0.18095,0.12204 0.37159,0.22906 0.57,0.32c0.1053,0.05191 0.21595,0.09215 0.33,0.12c0.13904,0.04959 0.29096,0.04959 0.43,0c0.23962,-0.09816 0.44731,-0.26086 0.6,-0.47c0.13917,-0.17787 0.26613,-0.36497 0.38,-0.56c0.23551,-0.38263 0.44595,-0.78013 0.63,-1.19l-0.31,0.11c0.58352,0.29908 1.28491,0.24898 1.82,-0.13c0.2705,-0.20163 0.46162,-0.49185 0.54,-0.82c0.0978,-0.2951 0.16154,-0.60042 0.19,-0.91c-0.03857,-1.19111 -0.16559,-2.37771 -0.38,-3.55v0v0c-0.3,-1 -0.62,-2 -0.95,-3c-0.2,-0.65 -0.4,-1.28 -0.6,-1.92c-0.17223,-0.65056 -0.4136,-1.28082 -0.72,-1.88c-0.33605,-0.59158 -0.79256,-1.10601 -1.34,-1.51c-0.52881,-0.38272 -1.11654,-0.67658 -1.74,-0.87l-6.62,-2.57h-0.05c-0.42573,-0.03995 -0.85427,-0.03995 -1.28,0c-0.44849,0.0186 -0.87937,0.17974 -1.23,0.46h0.27c-0.66142,-0.53507 -1.54212,-0.71419 -2.36,-0.48c-0.71953,0.28576 -1.30505,0.83201 -1.64,1.53l0.08,-0.08l-7,3.61l-1.91,1c-0.22949,0.10333 -0.44737,0.23071 -0.65,0.38c0.23946,-0.08117 0.4733,-0.17805 0.7,-0.29l1.94,-0.92l7.11,-3.47h0.05v-0.06c0.29843,-0.6043 0.81207,-1.07515 1.44,-1.32c0.69697,-0.18894 1.44228,-0.0287 2,0.43l0.14,0.11l0.13,-0.12c0.29243,-0.20709 0.64167,-0.31885 1,-0.32c0.39566,-0.0399 0.79434,-0.0399 1.19,0h-0.05l6.6,2.61c0.58149,0.18978 1.13101,0.46623 1.63,0.82c0.49413,0.36359 0.90636,0.82693 1.21,1.36c0.28803,0.57499 0.51591,1.17819 0.68,1.8c0.19,0.63 0.4,1.27 0.6,1.91c0.32,1 0.65,2 0.95,3v0c0.21101,1.14612 0.34133,2.30563 0.39,3.47c0.00641,0.27131 -0.01369,0.5426 -0.06,0.81c-0.05773,0.22516 -0.1921,0.42317 -0.38,0.56c-0.39565,0.26697 -0.9052,0.29762 -1.33,0.08l-0.22,-0.09l-0.09,0.21c-0.17461,0.39101 -0.3716,0.77165 -0.59,1.14c-0.16774,0.33464 -0.41495,0.62305 -0.72,0.84c-0.06241,0.01526 -0.12759,0.01526 -0.19,0c-0.09304,-0.02448 -0.18346,-0.05797 -0.27,-0.1c-0.17849,-0.08343 -0.3521,-0.17691 -0.52,-0.28c-0.17,-0.11 -0.34,-0.22 -0.5,-0.34l-0.12,-0.09v0c0.26,0 -0.36,0 -0.3,0v0v0v0l-0.05,0.05c-0.06338,0.06439 -0.13382,0.12142 -0.21,0.17c-0.29089,0.20482 -0.64619,0.2972 -1,0.26c-0.16962,-0.01831 -0.33332,-0.07288 -0.48,-0.16c-0.15085,-0.04995 -0.28094,-0.14839 -0.37,-0.28c-0.2398,-0.6451 -0.2398,-1.3549 0,-2v-0.16l-0.15,-0.07l-4.3,-1.89h-0.06h-0.05c-1.91341,0.5924 -3.78438,1.31406 -5.6,2.16c-0.64,0.3 -1.12,0.55 -1.44,0.73c-0.20498,0.0338 -0.40381,0.09783 -0.59,0.19z" fill="#eb996e"></path><path d="M322.73,270.1c0.64545,0.53894 1.36646,0.9803 2.14,1.31c1.86048,0.91281 3.82966,1.58489 5.86,2l-0.2,-0.22c0,0.38 0.06,0.79 0.11,1.21c0.29282,2.33926 1.03293,4.60035 2.18,6.66c0.34167,0.62147 0.72943,1.21647 1.16,1.78c0.31,0.4 0.5,0.6 0.52,0.58c0.02,-0.02 -0.58,-0.94 -1.38,-2.52c-1.02333,-2.06162 -1.69909,-4.27812 -2,-6.56c-0.05,-0.41 -0.08,-0.81 -0.11,-1.18v-0.16h-0.19c-1.99663,-0.40009 -3.94449,-1.01361 -5.81,-1.83c-1.42,-0.67 -2.24,-1.17 -2.28,-1.07z" fill="#eb996e"></path><path d="M328.49,276.14c-0.12311,3.1137 0.98729,6.15023 3.09,8.45c0.12,-0.08 -1.07,-1.75 -1.91,-4.09c-0.84,-2.34 -1.03,-4.38 -1.18,-4.36z" fill="#eb996e"></path><path d="M306.9,280.23c0,0 0.06,0.08 0.2,0.2c0.19956,0.17164 0.41371,0.32555 0.64,0.46c0.84073,0.54275 1.77759,0.91953 2.76,1.11c1.50784,0.2912 3.06717,0.15259 4.5,-0.4c1.81645,-0.71709 3.33352,-2.03306 4.3,-3.73l-0.31,0.1c2.24862,1.0822 4.6884,1.71083 7.18,1.85c0.66875,0.06923 1.34432,0.0287 2,-0.12c0.369,-0.08225 0.69372,-0.29992 0.91,-0.61c0.20017,-0.31877 0.25817,-0.70662 0.16,-1.07c-0.09557,-0.35822 -0.32933,-0.66391 -0.65,-0.85l-0.78,-0.43c-2.06,-1.11 -4,-2 -5.58,-2.73c-1.58,-0.73 -3,-1.23 -3.88,-1.57c-0.47301,-0.20311 -0.96558,-0.35725 -1.47,-0.46c0.45115,0.24576 0.91896,0.45962 1.4,0.64c0.91,0.39 2.21,1 3.81,1.7c1.6,0.7 3.47,1.69 5.5,2.82l0.77,0.43c0.21061,0.12146 0.36237,0.3238 0.42,0.56c0.06406,0.24045 0.02798,0.4966 -0.1,0.71c-0.15471,0.20805 -0.38418,0.34788 -0.64,0.39c-0.60422,0.13016 -1.22523,0.16391 -1.84,0.1c-2.42562,-0.14806 -4.80105,-0.75549 -7,-1.79l-0.2,-0.1l-0.11,0.2c-0.89266,1.60931 -2.30192,2.87059 -4,3.58c-1.36109,0.5553 -2.84887,0.72483 -4.3,0.49c-0.95527,-0.1565 -1.87785,-0.47079 -2.73,-0.93c-0.64,-0.35 -0.94,-0.58 -0.96,-0.55z" fill="#eb996e"></path><path d="M336.24,421.37c0.07173,-0.30923 0.07173,-0.63077 0,-0.94c-0.14565,-0.85755 -0.46926,-1.67509 -0.95,-2.4c-0.15619,-0.25596 -0.34813,-0.4883 -0.57,-0.69c-0.28338,-0.26685 -0.68931,-0.35876 -1.06,-0.24c-0.22188,0.07962 -0.39507,0.25649 -0.47,0.48c-0.06788,0.20452 -0.06788,0.42548 0,0.63c0.1367,0.34749 0.30403,0.68214 0.5,1c0.36,0.62 0.67,1.24 1.14,1.94c0.28947,0.40524 0.77483,0.62307 1.27,0.57c0.44459,-0.07791 0.8634,-0.26329 1.22,-0.54c0.65889,-0.4822 1.25958,-1.03926 1.79,-1.66c0.25455,-0.29244 0.49163,-0.59964 0.71,-0.92c0.24319,-0.31596 0.42314,-0.67587 0.53,-1.06c0.11791,-0.46312 -0.10833,-0.94494 -0.54,-1.15c-0.39943,-0.11488 -0.82987,-0.01671 -1.14,0.26c-0.45194,0.39809 -0.85177,0.85168 -1.19,1.35c-0.49822,0.70456 -0.89541,1.47536 -1.18,2.29c-0.13207,0.28517 -0.20033,0.59573 -0.2,0.91c0.46687,-1.05335 1.03628,-2.05819 1.7,-3c0.33247,-0.45177 0.71864,-0.86144 1.15,-1.22c0.18065,-0.16551 0.43229,-0.22936 0.67,-0.17c0.20351,0.11999 0.29527,0.36606 0.22,0.59c-0.09586,0.31086 -0.25219,0.59972 -0.46,0.85c-0.21,0.3 -0.44,0.59 -0.68,0.87c-0.51423,0.57802 -1.08733,1.10084 -1.71,1.56c-0.29316,0.22486 -0.63617,0.37578 -1,0.44c-0.3024,0.03965 -0.60103,-0.0961 -0.77,-0.35c-0.39,-0.57 -0.76,-1.28 -1.13,-1.86c-0.17477,-0.2764 -0.33175,-0.56364 -0.47,-0.86c-0.1,-0.27 0,-0.45 0.14,-0.52c0.43,-0.18 0.85,0.31 1.14,0.72c0.64188,0.94484 1.09675,2.00394 1.34,3.12z" fill="#172227"></path><path d="M311.83,422.21l-12.12,26.27l-19.56,-9.04l12.53,-32.51z" fill="#ffbe9d"></path><path d="M302,446.72l-7.09,13.51c0,0 18.09,18.77 16.43,22.93l-42.62,-20.43l11.71,-27.09z" fill="#ff4864"></path><path d="M282.62,452.06c-0.97098,-0.14526 -1.89628,0.46156 -2.15,1.41c-0.19424,0.96818 0.4104,1.91706 1.37,2.15c1.03608,0.17677 2.03221,-0.47858 2.28,-1.5c0.08872,-1.03177 -0.65266,-1.94967 -1.68,-2.08" fill="#ffffff"></path><g fill="#ffffff" opacity="0.6"><path d="M268.72,462.73l1.78,-3.4l40.19,20.87c0,0 1.51,1.73 0.65,3z"></path></g><path d="M295.71,460.34c-0.11,0.21 -1.19,-0.2 -2.54,0c-1.35,0.2 -2.31,0.79 -2.46,0.62c-0.15,-0.17 0.74,-1.23 2.37,-1.42c1.63,-0.19 2.77,0.63 2.63,0.8z" fill="#172227"></path><path d="M299.29,464.34c-0.05,0.22 -1.12,0.14 -2.25,0.68c-1.13,0.54 -1.78,1.38 -2,1.27c-0.22,-0.11 0.23,-1.35 1.65,-2c1.42,-0.65 2.69,-0.16 2.6,0.05z" fill="#172227"></path><path d="M299.27,470.9c-0.21,0 0,-1.22 1.08,-2.11c1.08,-0.89 2.27,-0.87 2.27,-0.65c0,0.22 -0.89,0.54 -1.76,1.27c-0.87,0.73 -1.38,1.59 -1.59,1.49z" fill="#172227"></path><path d="M297.74,455.14c-0.18,0.15 -1,-0.6 -2.21,-1.08c-1.21,-0.48 -2.31,-0.55 -2.33,-0.78c-0.02,-0.23 1.21,-0.55 2.64,0c1.43,0.55 2.08,1.72 1.9,1.86z" fill="#172227"></path><path d="M306,443.22l31.95,-80c0,0 -0.72,-13.64 -3.23,-17.95c-2.51,-4.31 -78.63,-29.44 -78.63,-29.44c0,0 -19.39,-4.67 -32.31,0c-12.92,4.67 -22.62,20.82 -20.83,29.8c1.79,8.98 10.05,16.28 10.05,16.28l55.3,1l30.5,11.09l-20.55,58.89z" fill="#172227"></path><path d="M334.41,388.57l0.72,28.93l-21.54,0.52l-3.1,-34.7z" fill="#ffbe9d"></path><path d="M336.41,414.91l-0.41,15.25c0,0 24.54,8.82 24.86,13.33l-47.26,0.48l-1.45,-29.48z" fill="#ff4864"></path><path d="M321.38,428.26c-0.93926,0.2972 -1.50393,1.25411 -1.31,2.22c0.26386,0.95158 1.22534,1.5311 2.19,1.32c1.00576,-0.30458 1.60426,-1.33558 1.37,-2.36c-0.37357,-0.96398 -1.44336,-1.45908 -2.42,-1.12" fill="#ffffff"></path><g fill="#ffffff" opacity="0.6"><path d="M313.62,444l0.09,-3.83l45.28,1c0,0 2.12,0.89 1.89,2.38z"></path></g><path d="M336.78,429.91c0,0.23 -1.16,0.35 -2.28,1.1c-1.12,0.75 -1.73,1.73 -1.94,1.64c-0.21,-0.09 0.12,-1.42 1.5,-2.31c1.38,-0.89 2.77,-0.64 2.72,-0.43z" fill="#172227"></path><path d="M341.76,431.91c0.06,0.22 -0.94,0.63 -1.71,1.61c-0.77,0.98 -1,2 -1.22,2c-0.22,0 -0.39,-1.31 0.59,-2.52c0.98,-1.21 2.33,-1.31 2.34,-1.09z" fill="#172227"></path><path d="M344.64,437.81c-0.21,0.06 -0.55,-1.09 0,-2.36c0.55,-1.27 1.66,-1.79 1.76,-1.6c0.1,0.19 -0.56,0.88 -1,1.93c-0.44,1.05 -0.54,2.01 -0.76,2.03z" fill="#172227"></path><path d="M336.31,424.35c-0.09,0.21 -1.16,-0.1 -2.46,0c-1.3,0.1 -2.32,0.52 -2.44,0.33c-0.12,-0.19 0.85,-1 2.39,-1.13c1.54,-0.13 2.62,0.61 2.51,0.8z" fill="#172227"></path><path d="M321.83,308.27c0,0 12.91,-1 14.34,13c1.43,14 2.83,79.32 2.83,79.32l-30.16,2.52l-4.67,-66.78l-48.11,-20.47c0,0 57.15,-9.38 65.77,-7.59z" fill="#172227"></path><path d="M268.64,289.38c0,0 7.83,22 6.34,24.41c-1.49,2.41 -21.64,12.51 -21.64,12.51l-50.4,19.36c0,0 -5.17,-8.23 -5.17,-20.88c0,-12.65 17.53,-35.4 17.53,-35.4z" fill="#172227"></path><path d="M253.7,314.74c0,0 0.07,0.05 0.23,0.13l0.72,0.33l2.79,1.24l10.48,4.56l36.17,15.57l-0.17,-0.23c0.46,6.6 0.95,13.73 1.47,21.1c1.22,17.23 2.35,33.11 3.25,45.68v0.23h0.23l22,-1.93l6,-0.56l1.58,-0.17c0.18193,-0.01148 0.36256,-0.03824 0.54,-0.08h-0.54l-1.59,0.1l-6.06,0.45l-22,1.73l0.24,0.21c-0.86,-12.57 -1.95,-28.46 -3.13,-45.69c-0.52,-7.37 -1,-14.5 -1.49,-21.09v-0.17l-0.15,-0.06l-36.25,-15.39l-10.54,-4.42l-2.82,-1.16l-0.74,-0.29z" fill="#455a64"></path><path d="M213.61,316.94c0.48369,-0.08882 0.95879,-0.21931 1.42,-0.39l3.79,-1.22c4.14215,-1.40291 8.38871,-2.47625 12.7,-3.21c4.30944,-0.70603 8.70924,-0.65188 13,0.16c1.76134,0.41392 3.50029,0.91792 5.21,1.51c-0.40925,-0.27066 -0.84894,-0.49218 -1.31,-0.66c-1.23093,-0.5224 -2.50597,-0.93403 -3.81,-1.23c-4.32855,-0.9489 -8.79826,-1.06429 -13.17,-0.34c-4.34441,0.74794 -8.60957,1.8996 -12.74,3.44c-1.59,0.56 -2.87,1.05 -3.74,1.39c-0.46743,0.13725 -0.91974,0.32153 -1.35,0.55z" fill="#455a64"></path><path d="M220.74,305.36c1.46528,-0.09022 2.93472,-0.09022 4.4,0c1.36,0.09 3,0.3 4.78,0.51c1.78,0.21 3.76,0.45 5.8,0.84c3.50173,0.55935 6.85897,1.80303 9.88,3.66c1.20232,0.83998 2.34505,1.76218 3.42,2.76c-0.19426,-0.35152 -0.44035,-0.67178 -0.73,-0.95c-0.74332,-0.80076 -1.57153,-1.51831 -2.47,-2.14c-3.01713,-1.99431 -6.42734,-3.31747 -10,-3.88c-2.07,-0.4 -4.06,-0.62 -5.86,-0.81c-1.8,-0.19 -3.42,-0.35 -4.8,-0.39c-1.092,-0.04813 -2.18611,-0.00129 -3.27,0.14c-0.39423,0.02835 -0.78192,0.116 -1.15,0.26z" fill="#455a64"></path><path d="M243,128.89c-5.8,-1 -10.9,1.24 -15.79,4.51c-4.87849,3.36625 -8.61185,8.14285 -10.7,13.69c-2.32217,5.80065 -2.69423,12.1993 -1.06,18.23c1.69495,6.04087 5.78417,11.12711 11.32,14.08c7.54,3.83 17.19,2.5 23.94,-2.6c6.75,-5.1 10.61,-13.54 10.93,-22c0.30661,-5.8665 -1.23968,-11.68084 -4.42,-16.62c-3.24596,-4.93529 -8.39647,-8.30015 -14.22,-9.29" fill="#172227"></path><path d="M226.51,148.61c0.85,-2.22 0.52,-4.7 0.85,-7.05c0.74,-5.18 4.91,-9.33 9.74,-11.35c4.49,-1.88 10,-1.47 15.38,0.28c3.7525,1.14098 7.10293,3.32604 9.66,6.3c3.30613,4.0933 4.42423,9.5347 3,14.6l-26.49,-3.85c-2.48,2.05 -5,4.13 -8,5.28c-0.86664,0.38231 -1.81745,0.53389 -2.76,0.44c-0.96129,-0.11211 -1.76752,-0.77745 -2.06,-1.7c-0.29,-1 0.31,-1.99 0.68,-2.95z" fill="#172227"></path><path d="M253,137.8l-23.13,4.9c-2.2237,0.16951 -3.95495,2.0003 -4,4.23l0.28,50.06c0.02133,3.41609 1.167,6.73009 3.26,9.43l2.21,2.85c5,6.49 15.21,5.83 19.05,-1.42c0.23474,-0.41204 0.41619,-0.85223 0.54,-1.31c0.07,-0.45 0.19,-0.75 0.21,-1.13l0.45,-4.88c0.22,-4.46 0.25,-9 0.25,-8.94c0,0.06 9.47,-1.2 11.89,-13.4c1.21,-6.06 1.29,-16.08 1.09,-24.28c-0.16,-7.38 -4.69,-16.6 -12.1,-16.11z" fill="#ffbe9d"></path><path d="M261.22,164.14c-0.02701,0.85302 -0.72655,1.53043 -1.58,1.53c-0.40561,0.0162 -0.80067,-0.13159 -1.09605,-0.41004c-0.29538,-0.27845 -0.46621,-0.6641 -0.47395,-1.06996c0.02178,-0.85533 0.72441,-1.53573 1.58,-1.53c0.40636,-0.01901 0.80301,0.12783 1.09903,0.40688c0.29601,0.27904 0.46599,0.66635 0.47097,1.07312z" fill="#172227"></path><path d="M262.74,159c-0.2,0.2 -1.36,-0.73 -3.05,-0.79c-1.69,-0.06 -3,0.74 -3.15,0.53c-0.15,-0.21 0.13,-0.46 0.69,-0.84c0.75173,-0.47577 1.63125,-0.70961 2.52,-0.67c0.88111,0.0301 1.72934,0.34205 2.42,0.89c0.51,0.45 0.67,0.88 0.57,0.88z" fill="#172227"></path><path d="M245.57,163.33c-0.02701,0.85302 -0.72655,1.53043 -1.58,1.53c-0.40391,0.01346 -0.79637,-0.13556 -1.08955,-0.41371c-0.29319,-0.27815 -0.46264,-0.66222 -0.47045,-1.06629c0.02178,-0.85533 0.72441,-1.53573 1.58,-1.53c0.40467,-0.01623 0.7987,0.13186 1.09251,0.4106c0.29381,0.27874 0.46242,0.66444 0.46749,1.0694z" fill="#172227"></path><path d="M246.66,158.62c-0.2,0.2 -1.36,-0.73 -3.06,-0.79c-1.7,-0.06 -3,0.74 -3.14,0.52c-0.14,-0.22 0.13,-0.46 0.68,-0.83c0.75403,-0.47896 1.63775,-0.71299 2.53,-0.67c0.88111,0.0301 1.72934,0.34205 2.42,0.89c0.51,0.42 0.67,0.79 0.57,0.88z" fill="#172227"></path><path d="M251.74,171.5c0.9042,-0.24136 1.83431,-0.37231 2.77,-0.39c0.43,0 0.85,-0.1 0.93,-0.39c0.05637,-0.4445 -0.02754,-0.89551 -0.24,-1.29c-0.36,-1.06 -0.75,-2.18 -1.15,-3.34c-1.59,-4.76 -2.73,-8.67 -2.54,-8.73c0.19,-0.06 1.64,3.74 3.24,8.5c0.38,1.17 0.75,2.29 1.09,3.36c0.25704,0.53227 0.31384,1.13929 0.16,1.71c-0.1358,0.3034 -0.40605,0.52552 -0.73,0.6c-0.24239,0.05728 -0.49097,0.08415 -0.74,0.08c-0.9309,0.08199 -1.86845,0.04503 -2.79,-0.11z" fill="#172227"></path><path d="M252.13,191.59c-5.77834,-0.12942 -11.40732,-1.86035 -16.26,-5c0,0 3.8,8.66 16.13,8z" fill="#eb996e"></path><path d="M250.87,175.56c-0.61776,-0.86127 -1.64414,-1.33265 -2.7,-1.24c-0.77693,0.03992 -1.50191,0.40241 -2,1c-0.48148,0.5571 -0.56526,1.35504 -0.21,2c0.52637,0.65387 1.40502,0.90948 2.2,0.64c0.80919,-0.24892 1.56055,-0.65689 2.21,-1.2c0.19713,-0.12904 0.36701,-0.29552 0.5,-0.49c0.12932,-0.19009 0.12932,-0.43991 0,-0.63" fill="#eb996e"></path><path d="M246.71,172.48c0.28,0 0.21,1.83 1.73,3.2c1.52,1.37 3.49,1.24 3.49,1.5c0,0.11 -0.45,0.34 -1.27,0.33c-1.07839,-0.02749 -2.11247,-0.43475 -2.92,-1.15c-0.77702,-0.68598 -1.25743,-1.64679 -1.34,-2.68c-0.04,-0.77 0.19,-1.22 0.31,-1.2z" fill="#172227"></path><path d="M246.56,153.6c-0.18,0.45 -1.86,0.17 -3.86,0.33c-2,0.16 -3.62,0.64 -3.87,0.22c-0.11,-0.21 0.19,-0.63 0.85,-1.05c1.79427,-1.03836 3.96655,-1.19326 5.89,-0.42c0.72,0.32 1.08,0.7 0.99,0.92z" fill="#172227"></path><path d="M262.54,151.61c-0.32,0.37 -1.47,-0.07 -2.87,-0.14c-1.4,-0.07 -2.6,0.15 -2.86,-0.26c-0.11,-0.2 0.09,-0.58 0.63,-0.92c0.70765,-0.42116 1.52948,-0.61001 2.35,-0.54c0.82402,0.04664 1.61343,0.34704 2.26,0.86c0.48,0.39 0.63,0.82 0.49,1z" fill="#172227"></path><path d="M222.27,145c2.4,-7 12.87,-16.64 20.28,-16l11.7,7.34c-0.86297,4.10567 -3.90764,7.40759 -7.93,8.6c-2.11,0.59 -4.63,0.72 -5.92,2.5c-1.29,1.78 -0.61,4.5 -1.84,6.38c-1.69,2.59 -6.17,2.38 -7.46,5.2c-0.56,1.23 -0.31,2.72 -0.9,3.95c-0.78,1.62 -5,3.62 -6.68,3c-1.68,-0.62 -1.66,-3.5 -2.19,-5c-0.67664,-1.74559 -0.72613,-3.67197 -0.14,-5.45c0.81,-3.41 -0.07,-7.13 1.08,-10.52z" fill="#172227"></path><path d="M228.56,167.62c0,-0.91 -0.94,-3.1 -1.83,-3.28c-2.4,-0.47 -6.75,-0.44 -7,5.67c-0.38,8.37 8.1,7 8.12,6.79c0.02,-0.21 0.6,-6.02 0.71,-9.18z" fill="#ffbe9d"></path><path d="M225.41,173.51c0,0 -0.15,0.1 -0.4,0.2c-0.34991,0.13968 -0.74009,0.13968 -1.09,0c-0.87,-0.36 -1.55,-1.8 -1.52,-3.31c0.00785,-0.71895 0.17882,-1.42673 0.5,-2.07c0.18422,-0.52397 0.61413,-0.92397 1.15,-1.07c0.34896,-0.07141 0.70001,0.11247 0.84,0.44c0.1,0.24 0,0.41 0.08,0.42c0.08,0.01 0.19,-0.13 0.14,-0.48c-0.04323,-0.2084 -0.15183,-0.39758 -0.31,-0.54c-0.22016,-0.18408 -0.50402,-0.27391 -0.79,-0.25c-0.70391,0.10925 -1.30142,0.5744 -1.58,1.23c-0.39315,0.70744 -0.60608,1.50078 -0.62,2.31c0,1.69 0.77,3.3 2,3.71c0.44812,0.1497 0.93972,0.091 1.34,-0.16c0.24,-0.23 0.29,-0.41 0.26,-0.43z" fill="#eb996e"></path><path d="M220.48,142.86v0c0,-2.61 -3.24,-4.32 -5.79,-4.92c-2.60477,-0.44739 -5.28343,0.06419 -7.54,1.44c-1.35,0.74 -2.7,1.78 -3,3.29c-0.3,1.51 1.15,3.29 2.58,2.75c-1.97408,0.5857 -3.38721,2.32173 -3.56013,4.37358c-0.17292,2.05186 0.92975,3.9999 2.77796,4.90772c1.84821,0.90782 4.06396,0.58976 5.58217,-0.8013c-0.72908,2.41868 -2.26418,4.51489 -4.35,5.94c4.41047,0.63023 8.82154,-1.14434 11.5668,-4.65332c2.74527,-3.50899 3.40623,-8.21746 1.7332,-12.34668z" fill="#172227"></path><path d="M214.67,156.17c-0.24373,-0.81329 -0.34853,-1.66185 -0.31,-2.51c-0.03963,-4.13472 1.31685,-8.16188 3.85,-11.43c0.48309,-0.69606 1.07775,-1.30761 1.76,-1.81c0.16,0.11 -2.65,2.89 -4.12,7.38c-1.47,4.49 -0.99,8.37 -1.18,8.37z" fill="#ff4864"></path><path d="M251.82,133.87c0.77,3.41 5.95,7.78 8.22,10.43c4.34,5.06 5.19,6.74 5.15,18c2,-3.91 3.61,-7.74 3.45,-12.14c-0.09267,-4.45706 -1.81442,-8.72588 -4.84,-12c-3.0899,-3.26096 -7.53902,-4.87006 -12,-4.34" fill="#172227"></path><path d="M287.3,226.94c0,0 -9,-15 -11.52,-18.07c-2.01221,-2.34827 -4.5372,-4.20267 -7.38,-5.42c-1.1266,-0.47022 -2.30474,-0.80587 -3.51,-1l-13,-2.87c0,0 0,8.84 -9.29,9.39c-9.29,0.55 -17.08,-12.37 -17.08,-12.37c0,0 -15,2.32 -18.57,4.16c-3.57,1.84 -9.21,4.19 -12.31,19.71l-2.18,15.18l25.86,2.35l2.47,38.38l12.81,8.92c0,0 35.51,9.23 37.78,9.84c2.27,0.61 3,-57.14 3,-57.14c0,0 9.14,-5.89 12.92,-11.06z" fill="#ff4864"></path><path d="M270.3,220.49c0.20744,0.34673 0.37517,0.71572 0.5,1.1c0.29,0.73 0.67,1.79 1.09,3.13c2.16713,6.97335 3.06139,14.27984 2.64,21.57c-0.09,1.39 -0.19,2.52 -0.31,3.29c-0.02695,0.40307 -0.09736,0.80205 -0.21,1.19c-0.04802,-0.4019 -0.04802,-0.8081 0,-1.21c0.05,-0.78 0.11,-1.9 0.14,-3.29c0.09746,-3.61736 -0.06965,-7.23701 -0.5,-10.83c-0.45052,-3.58635 -1.15902,-7.13555 -2.12,-10.62c-0.37,-1.34 -0.7,-2.42 -0.93,-3.16c-0.13997,-0.37865 -0.2405,-0.77072 -0.3,-1.17z" fill="#172227"></path><path d="M269.2,283.35l-48.63,-10.58l-2.25,-34.77l-21.62,-2c0,0 0.8,23.76 1.63,30.83c1.19,10.16 7.2,24 10.71,26.79c3.51,2.79 62.34,1.52 62.34,1.52z" fill="#ffbe9d"></path><path d="M296.8,289.65c-0.33183,0.68835 -1.04731,1.10736 -1.81,1.06c-0.16,-0.01506 -0.31772,-0.04862 -0.47,-0.1c-1.08,-0.34 -1,-2.53 -1,-2.53l-5.15,-0.84c0,0 -6.7,4.32 -9.09,7.18c-2.39,2.86 -8.46,0.55 -8.46,0.55l-2.11,-11l9.49,-8.58c0,0 -0.59,0.52 0.07,-1.09c0.66,-1.61 3.63,-1 3.63,-1c0.47,-0.79 2.41,-1.08 2.41,-1.08l8.32,1c1.71503,0.19682 3.24846,1.16027 4.17,2.62l3.52,5.57c0,0 1.86,4 1.56,4.95c-0.27516,0.804 -1.1102,1.27317 -1.94,1.09c0,0 -0.41,2.64 -1.1,2.73c-0.71182,-0.03686 -1.41048,-0.20644 -2.06,-0.5z" fill="#ffbe9d"></path><path d="M279.09,281.76c0,0.09 1.12,0 2.89,0.07c2.31177,0.10213 4.5976,0.52968 6.79,1.27c1.20712,0.40423 2.38071,0.90242 3.51,1.49c1,0.57 2.05,1 2.37,1.77c0.15164,0.32533 0.11729,0.70698 -0.09,1c-0.1502,0.23751 -0.37029,0.42267 -0.63,0.53c-0.23557,0.07679 -0.48226,0.11396 -0.73,0.11c0,0 0.26,0.23 0.8,0.08c0.3193,-0.09163 0.60011,-0.28468 0.8,-0.55c0.29127,-0.36774 0.36726,-0.86172 0.2,-1.3c-0.20761,-0.48199 -0.55623,-0.88986 -1,-1.17c-0.45,-0.3 -0.92,-0.6 -1.45,-0.89c-1.14182,-0.62668 -2.3364,-1.15202 -3.57,-1.57c-2.23939,-0.75487 -4.5868,-1.13992 -6.95,-1.14c-0.98945,-0.04616 -1.98027,0.05494 -2.94,0.3z" fill="#eb996e"></path><path d="M278.51,287.07c0,0.16 3.4,0 7.56,0.26c4.16,0.26 7.51,0.75 7.53,0.6c-0.6927,-0.27359 -1.41934,-0.45188 -2.16,-0.53c-1.76726,-0.30058 -3.55011,-0.5009 -5.34,-0.6c-1.79193,-0.10037 -3.58807,-0.10037 -5.38,0c-0.74558,-0.01215 -1.48927,0.0787 -2.21,0.27z" fill="#eb996e"></path><path d="M296.75,289.44c0.07562,-0.28714 0.11261,-0.58308 0.11,-0.88c0.05096,-0.81254 0.05096,-1.62746 0,-2.44c-0.0284,-0.56886 -0.10535,-1.13424 -0.23,-1.69c-0.14949,-0.65212 -0.42832,-1.2676 -0.82,-1.81c-0.81512,-1.25885 -1.87226,-2.34318 -3.11,-3.19c-1.23245,-0.85178 -2.5791,-1.52511 -4,-2c-1.17177,-0.33414 -2.38176,-0.51564 -3.6,-0.54c-1,0 -1.86,0 -2.43,0c-0.29961,-0.01969 -0.6004,0.01072 -0.89,0.09c1.09422,0.15044 2.19588,0.24057 3.3,0.27c1.17738,0.07959 2.3417,0.29434 3.47,0.64c1.35662,0.4938 2.64129,1.1664 3.82,2c1.178,0.80456 2.19544,1.822 3,3c0.64855,0.96511 1.02192,2.08867 1.08,3.25c0.24,2.03 0.19,3.31 0.3,3.3z" fill="#eb996e"></path><path d="M284.73,274.35c0,0.08 1.25,0.11 3.24,0.34c1.99,0.23 5,0.43 6.72,3.07c1.69469,1.97238 3.10811,4.16991 4.2,6.53c0.35632,1.0108 0.62073,2.05169 0.79,3.11c0.06995,-0.28787 0.08689,-0.58606 0.05,-0.88c-0.05054,-0.80593 -0.21552,-1.60057 -0.49,-2.36c-1.0071,-2.45239 -2.40525,-4.72523 -4.14,-6.73c-0.46403,-0.61058 -1.0052,-1.15847 -1.61,-1.63c-0.59976,-0.43506 -1.27937,-0.74768 -2,-0.92c-1.15481,-0.30503 -2.33748,-0.49265 -3.53,-0.56c-1.07332,-0.1318 -2.15932,-0.12171 -3.23,0.03z" fill="#eb996e"></path><path d="M281.12,292.65c0.18141,-0.106 0.3493,-0.2336 0.5,-0.38c0.36,-0.28 0.82,-0.66 1.39,-1.12c1.75006,-1.35672 3.57639,-2.61211 5.47,-3.76h-0.12l5.15,0.88l-0.18,-0.22c-0.01112,0.42235 0.0224,0.84469 0.1,1.26c0.06885,0.46088 0.27039,0.89174 0.58,1.24c0.19576,0.16698 0.43516,0.27453 0.69,0.31c0.23741,0.04991 0.48259,0.04991 0.72,0c0.4983,-0.07464 0.95287,-0.32678 1.28,-0.71c0.08758,-0.09114 0.16472,-0.19176 0.23,-0.3l0.05,-0.08v-0.05v0v0l-0.3,0.11v0l0.16,0.06l0.66,0.24c0.23,0.07 0.46,0.13 0.71,0.18c0.12646,0.01035 0.25354,0.01035 0.38,0c0.16516,0.0133 0.33087,-0.01778 0.48,-0.09c0.22747,-0.17914 0.4006,-0.41806 0.5,-0.69c0.10399,-0.22653 0.1909,-0.46051 0.26,-0.7c0.14058,-0.47925 0.2508,-0.96688 0.33,-1.46l-0.3,0.21c0.71239,0.14535 1.44754,-0.10736 1.92,-0.66c0.23127,-0.28145 0.35528,-0.63576 0.35,-1c-0.01725,-0.33963 -0.07774,-0.67567 -0.18,-1c-0.38318,-1.26932 -0.85775,-2.50922 -1.42,-3.71v0v0c-0.59,-0.95 -1.23,-1.95 -1.87,-3l-1.19,-1.88c-0.36824,-0.65619 -0.80755,-1.26988 -1.31,-1.83c-0.52894,-0.53586 -1.16192,-0.95785 -1.86,-1.24c-0.68457,-0.25035 -1.40226,-0.39861 -2.13,-0.44l-7.84,-0.88h-0.06c-0.4698,0.07868 -0.93164,0.19915 -1.38,0.36c-0.47656,0.14499 -0.8938,0.43951 -1.19,0.84l0.29,-0.09c-0.86345,-0.3948 -1.866,-0.33869 -2.68,0.15c-0.69312,0.50914 -1.16535,1.264 -1.32,2.11l0.07,-0.11l-6.54,5.88c-0.74,0.67 -1.32,1.21 -1.76,1.62c-0.21603,0.1763 -0.4137,0.37397 -0.59,0.59c0.23649,-0.14752 0.4576,-0.31837 0.66,-0.51l1.83,-1.54l6.66,-5.75v0v-0.07c0.14519,-0.73321 0.55886,-1.38581 1.16,-1.83c0.69406,-0.39507 1.53672,-0.42863 2.26,-0.09l0.18,0.07l0.11,-0.16c0.26087,-0.30964 0.60957,-0.5328 1,-0.64c0.41642,-0.14411 0.84475,-0.25119 1.28,-0.32h-0.06l7.83,0.92c0.68392,0.03921 1.35809,0.18078 2,0.42c0.63525,0.25143 1.21091,0.63293 1.69,1.12c0.4708,0.53454 0.88314,1.11785 1.23,1.74l1.19,1.88l1.88,3v0c0.54698,1.17405 1.0147,2.38342 1.4,3.62c0.08752,0.28652 0.14451,0.58149 0.17,0.88c0.01232,0.26019 -0.07737,0.51493 -0.25,0.71c-0.34659,0.40585 -0.88922,0.58673 -1.41,0.47h-0.26v0.25c-0.07732,0.47205 -0.18081,0.93944 -0.31,1.4c-0.08231,0.41002 -0.26821,0.79215 -0.54,1.11c-0.06625,0.01048 -0.13375,0.01048 -0.2,0c-0.10644,0.00989 -0.21356,0.00989 -0.32,0c-0.21967,-0.0403 -0.43672,-0.09373 -0.65,-0.16c-0.21,-0.06 -0.42,-0.14 -0.63,-0.22l-0.15,-0.06v0l-0.3,0.11v0v0v0v0.06c-0.04734,0.08931 -0.10435,0.17314 -0.17,0.25c-0.25793,0.29745 -0.61161,0.49551 -1,0.56c-0.18841,0.03478 -0.38159,0.03478 -0.57,0c-0.17347,-0.0169 -0.33754,-0.08672 -0.47,-0.2c-0.43745,-0.62679 -0.6361,-1.38945 -0.56,-2.15v-0.19h-0.17l-5.16,-0.81h-0.07h-0.05c-1.8925,1.17897 -3.70024,2.48883 -5.41,3.92c-0.59,0.5 -1,0.91 -1.34,1.19c-0.18892,0.10863 -0.36648,0.23594 -0.53,0.38z" fill="#eb996e"></path><path d="M350.06,257.7l-64.05,0.52c-2.08,0 -4.06,1 -4.37,3l-7,46.69h-33c-1.06039,0 -1.92,0.85961 -1.92,1.92c0,1.06039 0.85961,1.92 1.92,1.92h105.36l7.2,-49.27c0.16734,-1.20003 -0.19173,-2.41387 -0.98498,-3.32974c-0.79325,-0.91588 -1.94339,-1.44456 -3.15502,-1.45026z" fill="#ffffff"></path><path d="M350.06,257.7c0.33599,-0.02247 0.67342,0.0079 1,0.09c0.98543,0.2326 1.85473,0.81096 2.45,1.63c0.43616,0.58474 0.70883,1.27504 0.79,2c0.02313,0.88586 -0.05403,1.77149 -0.23,2.64l-0.93,6.5c-1.41,9.78 -3.44,23.89 -5.94,41.23v0.17h-0.2l-102.23,0.06h-2.77c-0.50247,0.05152 -1.00918,-0.04218 -1.46,-0.27c-0.46442,-0.25081 -0.82036,-0.66369 -1,-1.16c-0.36978,-1.01196 0.05515,-2.14226 1,-2.66c0.44401,-0.22672 0.94402,-0.32047 1.44,-0.27h32.61l-0.25,0.21l7,-46.31c0.06457,-0.93491 0.48724,-1.80889 1.18,-2.44c0.70029,-0.58092 1.54876,-0.95494 2.45,-1.08c0.85759,-0.07905 1.71899,-0.1091 2.58,-0.09h2.52l9.64,-0.06l17.14,-0.11l24.4,-0.12h6.53h1.68h0.57c0,0 -0.19,0 -0.57,0h-1.68l-6.53,0.1l-24.4,0.27l-17.14,0.17l-9.64,0.09h-2.51c-0.84101,-0.01569 -1.68225,0.01436 -2.52,0.09c-0.82652,0.11371 -1.60353,0.46059 -2.24,1c-0.60658,0.57137 -0.9655,1.35741 -1,2.19c-2.09,14 -4.41,29.59 -6.91,46.31v0.22h-32.89c-0.40769,-0.05119 -0.82144,0.01835 -1.19,0.2c-0.69997,0.39832 -1.0188,1.23735 -0.76,2c0.14024,0.37152 0.4054,0.68265 0.75,0.88c0.37312,0.19015 0.79383,0.26664 1.21,0.22h2.75l102.23,0.06l-0.2,0.17l6.11,-41.22c0.37,-2.43 0.69,-4.6 1,-6.49c0.17774,-0.85175 0.26489,-1.71991 0.26,-2.59c-0.06594,-0.72027 -0.32124,-1.41028 -0.74,-2c-0.57352,-0.80535 -1.41277,-1.38256 -2.37,-1.63c-0.32947,-0.02656 -0.66053,-0.02656 -0.99,0z" fill="#172227"></path><path d="M311.31,284.16c0,2.20914 1.79086,4 4,4c2.20914,0 4,-1.79086 4,-4c0,-2.20914 -1.79086,-4 -4,-4c-2.20914,0 -4,1.79086 -4,4z" fill="#ffffff"></path><path d="M277.23,311.37c0.09,0 2.13,-11.87 4.55,-26.55c2.42,-14.68 4.32,-26.59 4.23,-26.6c-0.09,-0.01 -2.13,11.87 -4.55,26.55c-2.42,14.68 -4.32,26.59 -4.23,26.6z" fill="#172227"></path></g></g></g></svg>